<svg width="50" height="50" viewBox="0 0 50 50" fill="none" xmlns="http://www.w3.org/2000/svg">
<path d="M42.6595 7.35458C52.413 17.1158 52.4067 32.9355 42.6455 42.689C32.8842 52.4425 17.0645 52.4362 7.31104 42.675C-2.43701 32.9193 -2.43701 17.1104 7.31104 7.35458C17.009 -2.40665 32.7837 -2.45787 42.5449 7.24005C42.5833 7.27809 42.6214 7.31627 42.6595 7.35458Z" fill="#D7443E"/>
<path d="M37.4064 16.9368L29.3147 25.0287L37.4064 33.1205L33.0767 37.4503L24.9849 29.3585L16.8931 37.4503L12.5632 33.1205L20.6551 25.0287L12.5632 16.9368L16.8931 12.6071L24.9849 20.6988L33.0767 12.6071L37.4064 16.9368Z" fill="white"/>
</svg>
