<svg  viewBox="0 0 80 80" fill="none" xmlns="http://www.w3.org/2000/svg">
<path d="M73.3333 0H6.66667C2.98657 0.00433485 0.00433485 2.98657 0 6.66667V73.3333C0.00433485 77.0134 2.98657 79.9957 6.66667 80H73.3333C77.0134 79.9957 79.9957 77.0134 80 73.3333V6.66667C79.9957 2.98657 77.0134 0.00433485 73.3333 0ZM6.66667 2.66667H73.3333C75.5415 2.66909 77.3309 4.45853 77.3333 6.66667V16H2.66667V6.66667C2.66909 4.45853 4.45853 2.66909 6.66667 2.66667ZM73.3333 77.3333H6.66667C4.45853 77.3309 2.66909 75.5415 2.66667 73.3333V18.6667H77.3333V73.3333C77.3309 75.5415 75.5415 77.3309 73.3333 77.3333Z" fill="#59B130"/>
<path d="M9.33334 13.3333C11.5425 13.3333 13.3333 11.5425 13.3333 9.33333C13.3333 7.12419 11.5425 5.33333 9.33334 5.33333C7.1242 5.33333 5.33334 7.12419 5.33334 9.33333C5.33576 11.5415 7.1252 13.3309 9.33334 13.3333ZM9.33334 8C10.0697 8 10.6667 8.59695 10.6667 9.33333C10.6667 10.0697 10.0697 10.6667 9.33334 10.6667C8.59696 10.6667 8 10.0697 8 9.33333C8.00067 8.59722 8.59723 8.00066 9.33334 8Z" fill="#59B130"/>
<path d="M20 13.3333C22.2091 13.3333 24 11.5425 24 9.33333C24 7.12419 22.2091 5.33333 20 5.33333C17.7909 5.33333 16 7.12419 16 9.33333C16.0024 11.5415 17.7919 13.3309 20 13.3333ZM20 8C20.7364 8 21.3333 8.59695 21.3333 9.33333C21.3333 10.0697 20.7364 10.6667 20 10.6667C19.2636 10.6667 18.6667 10.0697 18.6667 9.33333C18.6673 8.59722 19.2639 8.00066 20 8Z" fill="#59B130"/>
<path d="M30.6667 13.3333C32.8758 13.3333 34.6667 11.5425 34.6667 9.33333C34.6667 7.12419 32.8758 5.33333 30.6667 5.33333C28.4575 5.33333 26.6667 7.12419 26.6667 9.33333C26.6691 11.5415 28.4585 13.3309 30.6667 13.3333ZM30.6667 8C31.4031 8 32 8.59695 32 9.33333C32 10.0697 31.4031 10.6667 30.6667 10.6667C29.9303 10.6667 29.3333 10.0697 29.3333 9.33333C29.334 8.59722 29.9306 8.00066 30.6667 8Z" fill="#59B130"/>
<path d="M53.3333 44H64C65.4721 43.9983 66.665 42.8054 66.6667 41.3333V30.6667C66.665 29.1946 65.4721 28.0017 64 28H53.3333C51.8613 28.0017 50.6684 29.1946 50.6667 30.6667V41.3333C50.6684 42.8054 51.8613 43.9983 53.3333 44ZM53.3333 30.6667H64V41.3333H53.3333V30.6667Z" fill="#59B130"/>
<path d="M65.3333 61.3333C64.597 61.3333 64 61.9303 64 62.6667V65.3333H53.3333V54.6667H60C60.7364 54.6667 61.3333 54.0697 61.3333 53.3333C61.3333 52.597 60.7364 52 60 52H53.3333C51.8613 52.0017 50.6684 53.1946 50.6667 54.6667V65.3333C50.6684 66.8054 51.8613 67.9983 53.3333 68H64C65.4721 67.9983 66.665 66.8054 66.6667 65.3333V62.6667C66.6667 61.9303 66.0697 61.3333 65.3333 61.3333Z" fill="#59B130"/>
<path d="M12 32H22.6667C23.403 32 24 31.4031 24 30.6667C24 29.9303 23.403 29.3333 22.6667 29.3333H12C11.2636 29.3333 10.6667 29.9303 10.6667 30.6667C10.6667 31.4031 11.2636 32 12 32Z" fill="#59B130"/>
<path d="M44 29.3333H28C27.2636 29.3333 26.6667 29.9303 26.6667 30.6667C26.6667 31.4031 27.2636 32 28 32H44C44.7364 32 45.3333 31.4031 45.3333 30.6667C45.3333 29.9303 44.7364 29.3333 44 29.3333Z" fill="#59B130"/>
<path d="M44 34.6667H12C11.2636 34.6667 10.6667 35.2636 10.6667 36C10.6667 36.7364 11.2636 37.3333 12 37.3333H44C44.7364 37.3333 45.3333 36.7364 45.3333 36C45.3333 35.2636 44.7364 34.6667 44 34.6667Z" fill="#59B130"/>
<path d="M12 42.6667H28C28.7364 42.6667 29.3333 42.0697 29.3333 41.3333C29.3333 40.597 28.7364 40 28 40H12C11.2636 40 10.6667 40.597 10.6667 41.3333C10.6667 42.0697 11.2636 42.6667 12 42.6667Z" fill="#59B130"/>
<path d="M44 40H33.3333C32.597 40 32 40.597 32 41.3333C32 42.0697 32.597 42.6667 33.3333 42.6667H44C44.7364 42.6667 45.3333 42.0697 45.3333 41.3333C45.3333 40.597 44.7364 40 44 40Z" fill="#59B130"/>
<path d="M12 56H22.6667C23.403 56 24 55.403 24 54.6667C24 53.9303 23.403 53.3333 22.6667 53.3333H12C11.2636 53.3333 10.6667 53.9303 10.6667 54.6667C10.6667 55.403 11.2636 56 12 56Z" fill="#59B130"/>
<path d="M44 53.3333H28C27.2636 53.3333 26.6667 53.9303 26.6667 54.6667C26.6667 55.403 27.2636 56 28 56H44C44.7364 56 45.3333 55.403 45.3333 54.6667C45.3333 53.9303 44.7364 53.3333 44 53.3333Z" fill="#59B130"/>
<path d="M44 58.6667H12C11.2636 58.6667 10.6667 59.2636 10.6667 60C10.6667 60.7364 11.2636 61.3333 12 61.3333H44C44.7364 61.3333 45.3333 60.7364 45.3333 60C45.3333 59.2636 44.7364 58.6667 44 58.6667Z" fill="#59B130"/>
<path d="M28 64H12C11.2636 64 10.6667 64.597 10.6667 65.3333C10.6667 66.0697 11.2636 66.6667 12 66.6667H28C28.7364 66.6667 29.3333 66.0697 29.3333 65.3333C29.3333 64.597 28.7364 64 28 64Z" fill="#59B130"/>
<path d="M44 64H33.3333C32.597 64 32 64.597 32 65.3333C32 66.0697 32.597 66.6667 33.3333 66.6667H44C44.7364 66.6667 45.3333 66.0697 45.3333 65.3333C45.3333 64.597 44.7364 64 44 64Z" fill="#59B130"/>
<path d="M66.9333 49.8667L59.8552 59.3035L58.276 57.724C57.7528 57.2187 56.9212 57.2259 56.4069 57.7402C55.8926 58.2545 55.8854 59.0862 56.3907 59.6093L59.0573 62.276C59.3072 62.5263 59.6464 62.6668 60 62.6667C60.0312 62.6667 60.0625 62.6653 60.0951 62.6635C60.4805 62.6361 60.8351 62.4427 61.0667 62.1333L69.0667 51.4667C69.5085 50.8776 69.3891 50.0418 68.8 49.6C68.2109 49.1582 67.3752 49.2776 66.9333 49.8667Z" fill="#59B130"/>
</svg>
