<svg viewBox="0 0 75 75" fill="none" xmlns="http://www.w3.org/2000/svg">
<g clip-path="url(#clip0)">
<path d="M73.0731 58.2846L60.6464 45.8581C58.0711 43.2826 53.9024 43.2821 51.3266 45.8581L48.2199 48.9649C45.6499 51.5345 41.4693 51.5342 38.8897 48.9546L25.8786 36.1158C23.309 33.5462 23.309 29.3655 25.8786 26.7959L28.9853 23.6893C31.5549 21.1198 31.5549 16.939 28.9853 14.3693L16.5589 1.94278C13.9892 -0.626846 9.80813 -0.626553 7.23894 1.94278L4.1326 5.04942C0.100174 9.0817 -1.08576 17.9721 1.03753 28.2509C2.39075 34.8019 6.28386 47.4146 17.1537 58.2845C28.0016 69.1325 40.5121 72.8554 47.0039 74.1091C54.1396 75.487 64.8633 75.814 69.9663 70.7112L73.0733 67.6044C75.6423 65.0349 75.6423 60.8541 73.0731 58.2846ZM10.3459 5.04942C11.2025 4.19293 12.5959 4.19278 13.4527 5.04942L25.8792 17.476C26.7359 18.3326 26.7359 19.7261 25.8792 20.5828L24.3337 22.1283L8.80017 6.59513L10.3459 5.04942ZM47.8371 69.7954C41.8388 68.6371 30.2802 65.1978 20.2604 55.178C10.1998 45.1171 6.59412 33.4321 5.34021 27.3622C3.67923 19.322 4.37078 13.2782 5.98357 9.99166L21.3816 25.3898C18.5557 29.6532 19.0201 35.4704 22.7826 39.2327L35.7936 52.0715C39.5452 55.8231 45.359 56.2902 49.6261 53.4622L65.0366 68.8728C60.3406 71.2542 53.0376 70.7995 47.8371 69.7954ZM69.9665 64.4978L68.4208 66.0435L52.8876 50.5104L54.4331 48.9649C55.2915 48.1063 56.6811 48.1063 57.5398 48.9649L69.9663 61.3914C70.8228 62.2478 70.8228 63.6414 69.9665 64.4978Z" fill="#59B130"/>
<path d="M42.0459 0.0168457C40.8327 0.0168457 39.8492 1.00034 39.8492 2.21353C39.8492 3.42671 40.8327 4.4102 42.0459 4.4102C57.7923 4.4102 70.6031 17.221 70.6031 32.9675C70.6031 34.1807 71.5866 35.1642 72.7998 35.1642C74.013 35.1642 74.9965 34.1807 74.9965 32.9675C74.9965 14.7984 60.2149 0.0168457 42.0459 0.0168457Z" fill="#59B130"/>
<path d="M42.0459 8.80371C40.8327 8.80371 39.8492 9.78721 39.8492 11.0004C39.8492 12.2136 40.8327 13.1971 42.0459 13.1971C52.9472 13.1971 61.8163 22.0661 61.8163 32.9675C61.8163 34.1807 62.7998 35.1642 64.013 35.1642C65.2261 35.1642 66.2096 34.1807 66.2096 32.9675C66.2096 19.6436 55.3698 8.80371 42.0459 8.80371Z" fill="#59B130"/>
<path d="M42.0459 17.5906C40.8327 17.5906 39.8492 18.5741 39.8492 19.7873C39.8492 21.0004 40.8327 21.9839 42.0459 21.9839C48.1023 21.9839 53.0294 26.9111 53.0294 32.9675C53.0294 34.1807 54.0129 35.1642 55.2261 35.1642C56.4393 35.1642 57.4228 34.1807 57.4228 32.9675C57.4229 24.4887 50.5247 17.5906 42.0459 17.5906Z" fill="#59B130"/>
<path d="M42.0459 26.3774C40.8327 26.3774 39.8492 27.3609 39.8492 28.5741C39.8492 29.7873 40.8327 30.7708 42.0459 30.7708C43.2571 30.7708 44.2425 31.7562 44.2425 32.9675C44.2425 34.1807 45.226 35.1642 46.4392 35.1642C47.6524 35.1642 48.6359 34.1807 48.6359 32.9675C48.6361 29.3336 45.6797 26.3774 42.0459 26.3774Z" fill="#59B130"/>
</g>
<defs>
<clipPath id="clip0">
<rect width="75" height="75" fill="white"/>
</clipPath>
</defs>
</svg>
