<svg  viewBox="0 0 103 72" fill="none" xmlns="http://www.w3.org/2000/svg">
<path d="M24 54.8571C21.1598 54.8571 18.8572 57.1597 18.8572 59.9999C18.8572 62.8401 21.1596 65.1427 24 65.1427C26.8404 65.1427 29.1429 62.8403 29.1429 59.9999C29.1397 57.1609 26.839 54.8601 24 54.8571ZM24 61.7141C23.0532 61.7141 22.2858 60.9467 22.2858 59.9999C22.2858 59.0531 23.0532 58.2857 24 58.2857C24.9468 58.2857 25.7142 59.0531 25.7142 59.9999C25.7132 60.9463 24.9464 61.7131 24 61.7141Z" fill="#59B130"/>
<path d="M78.8569 54.8571C76.0167 54.8571 73.7141 57.1597 73.7141 59.9999C73.7141 62.8401 76.0167 65.1427 78.8569 65.1427C81.6972 65.1427 83.9998 62.8403 83.9998 59.9999C83.9968 57.1609 81.696 54.8601 78.8569 54.8571ZM78.8569 61.7141C77.9101 61.7141 77.1427 60.9467 77.1427 59.9999C77.1427 59.0531 77.9103 58.2857 78.8569 58.2857C79.8038 58.2857 80.5712 59.0531 80.5712 59.9999C80.5704 60.9463 79.8034 61.7131 78.8569 61.7141Z" fill="#59B130"/>
<path d="M101.55 30.4553L89.7412 17.1562C88.7629 16.0545 87.359 15.4255 85.8857 15.4285H70.2856V5.14284C70.2826 2.30383 67.9818 0.00301338 65.1427 0H5.14284C2.30383 0.00301338 0.00301355 2.30383 1.67417e-07 5.14284V49.7142C-0.000200725 50.1688 0.180401 50.605 0.50203 50.9266C0.823458 51.248 1.2596 51.4286 1.71442 51.4286H3.42863V56.5715C3.43164 59.4105 5.73246 61.7113 8.57147 61.7143H12.1369C12.9819 67.6165 18.0375 72 24 72C29.9625 72 35.0181 67.6165 35.8631 61.7143H66.9942C67.8391 67.6165 72.8948 72 78.8573 72C84.8197 72 89.8754 67.6165 90.7204 61.7143H97.714C100.553 61.7113 102.854 59.4105 102.857 56.5715V33.8739C102.856 32.6125 102.391 31.3958 101.55 30.4553ZM3.42863 47.9998V5.14284C3.42963 4.19644 4.19644 3.42943 5.14284 3.42863H65.1427C66.0891 3.42963 66.8561 4.19644 66.857 5.14284V47.9998H3.42863ZM12.1369 58.2855H8.57147C7.62507 58.2845 6.85806 57.5177 6.85726 56.5713V51.4284H15.6182C13.735 53.269 12.5114 55.6791 12.1369 58.2855ZM24 68.5712C19.2662 68.5712 15.4285 64.7335 15.4285 59.9997C15.4285 55.2659 19.2662 51.4284 24 51.4284C28.7338 51.4284 32.5715 55.2661 32.5715 59.9999C32.5658 64.7313 28.7314 68.5658 24 68.5712ZM41.1427 58.2855H35.8629C35.4884 55.6791 34.265 53.2688 32.3818 51.4284H41.1427V58.2855ZM56.5713 58.2855H44.5714V51.4284H56.5713V58.2855ZM66.994 58.2855H59.9999V51.4284H70.475C68.5919 53.269 67.3684 55.6791 66.994 58.2855ZM78.8569 68.5712C74.123 68.5712 70.2854 64.7335 70.2854 59.9997C70.2854 55.2659 74.1228 51.4282 78.8569 51.4282C83.5907 51.4282 87.4283 55.2659 87.4283 59.9997C87.4227 64.7313 83.5885 68.5658 78.8569 68.5712ZM99.4282 56.5713C99.4272 57.5177 98.6604 58.2847 97.714 58.2855H90.7199C89.8652 52.3887 84.8155 48.0104 78.8569 47.9998H70.2854V18.8572H77.1426V35.9999C77.1457 38.8389 79.4465 41.1397 82.2855 41.1427H99.4282V56.5713ZM99.4282 37.7141H82.2855C81.3391 37.7131 80.5721 36.9463 80.5713 35.9999V18.8572H85.8857C86.3779 18.8543 86.8475 19.0629 87.1756 19.4297L98.9889 32.7338C99.2701 33.0472 99.4264 33.4528 99.4284 33.8739V37.7141H99.4282Z" fill="#59B130"/>
</svg>
