<svg  viewBox="0 0 76 76" fill="none" xmlns="http://www.w3.org/2000/svg">
<path d="M66.75 35.5938V34.25C66.75 30.6033 65.3013 27.1059 62.7227 24.5273C60.1441 21.9487 56.6467 20.5 53 20.5C49.3533 20.5 45.8559 21.9487 43.2773 24.5273C40.6987 27.1059 39.25 30.6033 39.25 34.25V39.25H34.25C33.9185 39.25 33.6005 39.3817 33.3661 39.6161C33.1317 39.8505 33 40.1685 33 40.5V45.5C33 45.8315 33.1317 46.1495 33.3661 46.3839C33.6005 46.6183 33.9185 46.75 34.25 46.75H34.375L35.5588 58H30.5V4.25C30.5 3.25544 30.1049 2.30161 29.4016 1.59835C28.6984 0.895088 27.7446 0.5 26.75 0.5C25.7554 0.5 24.8016 0.895088 24.0983 1.59835C23.3951 2.30161 23 3.25544 23 4.25V58H10.5C9.8372 58.0008 9.20177 58.2644 8.7331 58.7331C8.26443 59.2018 8.00078 59.8372 8 60.5V64.0961L5.53734 73.9469C5.49128 74.1312 5.48782 74.3235 5.52723 74.5093C5.56664 74.6952 5.64788 74.8696 5.76478 75.0193C5.88168 75.169 6.03116 75.2901 6.20188 75.3734C6.37259 75.4567 6.56004 75.5 6.75 75.5H65.5C65.8315 75.5 66.1495 75.3683 66.3839 75.1339C66.6183 74.8995 66.75 74.5815 66.75 74.25V69.3156L68.5144 52.5544C69.1187 52.2229 69.6223 51.7343 69.9718 51.1402C70.3213 50.5461 70.5038 49.8686 70.5 49.1794V40.1875C70.4988 39.1073 70.1251 38.0605 69.442 37.2237C68.7589 36.3869 67.8081 35.8112 66.75 35.5938ZM41.75 34.25C41.75 32.7726 42.041 31.3097 42.6064 29.9448C43.1717 28.5799 44.0004 27.3397 45.0451 26.295C46.0897 25.2504 47.3299 24.4217 48.6948 23.8564C50.0597 23.291 51.5226 23 53 23C54.4774 23 55.9403 23.291 57.3052 23.8564C58.6701 24.4217 59.9103 25.2504 60.955 26.295C61.9996 27.3397 62.8283 28.5799 63.3936 29.9448C63.959 31.3097 64.25 32.7726 64.25 34.25V35.5H52.6875C51.6073 35.5012 50.5605 35.8749 49.7237 36.558C48.8869 37.2411 48.3112 38.1919 48.0938 39.25H41.75V34.25ZM35.5 41.75H48V44.25H35.5V41.75ZM36.8884 46.75H48V49.1813C48.0021 49.6914 48.105 50.1962 48.3028 50.6665C48.5006 51.1368 48.7894 51.5634 49.1525 51.9217C49.5007 52.2695 49.915 52.5441 50.371 52.7292C50.827 52.9144 51.3154 53.0064 51.8075 52.9998C52.7101 52.9838 53.5768 52.6441 54.25 52.0427C54.9369 52.659 55.8272 52.9999 56.75 52.9999C57.6728 52.9999 58.5631 52.659 59.25 52.0427C59.9367 52.6587 60.8266 52.9996 61.7491 52.9998C62.6717 53.0001 63.5618 52.6597 64.2488 52.0439C64.7336 52.4797 65.3247 52.7801 65.9625 52.9148L64.375 68H46.4759L45.5 64.0961V60.5C45.4992 59.8372 45.2356 59.2018 44.7669 58.7331C44.2982 58.2644 43.6628 58.0008 43 58H38.0722L36.8884 46.75ZM25.5 4.25C25.5 3.91848 25.6317 3.60054 25.8661 3.36612C26.1005 3.1317 26.4185 3 26.75 3C27.0815 3 27.3995 3.1317 27.6339 3.36612C27.8683 3.60054 28 3.91848 28 4.25V58H25.5V4.25ZM10.5 60.5H43V63H10.5V60.5ZM13.3509 73L15.2259 65.5H17.6491L15.7741 73H13.3509ZM10.2259 65.5H12.6491L10.7741 73H8.35094L10.2259 65.5ZM20.2259 65.5H22.8341L21.8966 73H18.3509L20.2259 65.5ZM24.4159 73L25.3534 65.5H28.1466L29.0841 73H24.4159ZM31.6034 73L30.6659 65.5H33.2741L35.1491 73H31.6034ZM37.7259 73L35.8509 65.5H38.2741L40.1491 73H37.7259ZM42.7259 73L40.8509 65.5H43.2741L45.1491 73H42.7259ZM64.25 73H47.7259L47.1009 70.5H64.25V73ZM68 45.5V49.1794C68.0058 49.5087 67.8865 49.828 67.6661 50.0728C67.4457 50.3176 67.1406 50.4697 66.8125 50.4984C66.6433 50.5069 66.4741 50.4809 66.3153 50.422C66.1565 50.3631 66.0113 50.2725 65.8885 50.1557C65.7657 50.039 65.668 49.8985 65.6012 49.7428C65.5344 49.5871 65.5 49.4194 65.5 49.25V44.25H63V49.25C63 49.5815 62.8683 49.8995 62.6339 50.1339C62.3995 50.3683 62.0815 50.5 61.75 50.5C61.4185 50.5 61.1005 50.3683 60.8661 50.1339C60.6317 49.8995 60.5 49.5815 60.5 49.25V44.25H58V49.25C58 49.5815 57.8683 49.8995 57.6339 50.1339C57.3995 50.3683 57.0815 50.5 56.75 50.5C56.4185 50.5 56.1005 50.3683 55.8661 50.1339C55.6317 49.8995 55.5 49.5815 55.5 49.25V44.25H53V49.25C53.0004 49.5782 52.8715 49.8934 52.6412 50.1273C52.411 50.3613 52.0979 50.4952 51.7697 50.5H51.7525C51.4342 50.4968 51.1301 50.3676 50.9069 50.1406C50.7793 50.0154 50.6778 49.8661 50.6081 49.7015C50.5384 49.5369 50.5018 49.3602 50.5006 49.1814V40.1875C50.5012 39.6075 50.7319 39.0515 51.142 38.6414C51.5521 38.2313 52.1082 38.0006 52.6881 38H65.8131C66.3931 38.0006 66.9491 38.2313 67.3592 38.6414C67.7693 39.0515 68 39.6075 68.0006 40.1875L68 45.5Z" fill="#59B130"/>
<path d="M61.75 59.25H59.25V65.5H61.75V59.25Z" fill="#59B130"/>
<path d="M61.75 54.25H59.25V56.75H61.75V54.25Z" fill="#59B130"/>
<path d="M13.0642 40.8953C13.1472 41.1441 13.3064 41.3606 13.5192 41.5139C13.732 41.6673 13.9877 41.7498 14.25 41.7498C14.5123 41.7498 14.768 41.6673 14.9808 41.5139C15.1936 41.3606 15.3528 41.1441 15.4358 40.8953C15.7647 39.9162 16.316 39.0267 17.0463 38.2964C17.7767 37.5661 18.6662 37.0148 19.6453 36.6859C19.8943 36.603 20.1108 36.4438 20.2642 36.231C20.4177 36.0181 20.5003 35.7624 20.5003 35.5C20.5003 35.2376 20.4177 34.9818 20.2642 34.769C20.1108 34.5561 19.8943 34.397 19.6453 34.3141C18.6662 33.9851 17.7767 33.4339 17.0463 32.7036C16.316 31.9733 15.7647 31.0837 15.4358 30.1047C15.3528 29.8558 15.1936 29.6394 14.9808 29.4861C14.768 29.3327 14.5123 29.2502 14.25 29.2502C13.9877 29.2502 13.732 29.3327 13.5192 29.4861C13.3064 29.6394 13.1472 29.8558 13.0642 30.1047C12.7353 31.0837 12.184 31.9733 11.4537 32.7036C10.7233 33.4339 9.83375 33.9851 8.85469 34.3141C8.60574 34.397 8.3892 34.5561 8.23575 34.769C8.0823 34.9818 7.99973 35.2376 7.99973 35.5C7.99973 35.7624 8.0823 36.0181 8.23575 36.231C8.3892 36.4438 8.60574 36.603 8.85469 36.6859C9.83375 37.0148 10.7233 37.5661 11.4537 38.2964C12.184 39.0267 12.7353 39.9162 13.0642 40.8953ZM14.25 33.2448C14.8654 34.1214 15.6284 34.8845 16.505 35.5C15.6284 36.1155 14.8654 36.8786 14.25 37.7551C13.6346 36.8786 12.8715 36.1155 11.995 35.5C12.8715 34.8845 13.6346 34.1214 14.25 33.2448Z" fill="#59B130"/>
<path d="M74.6453 19.3141C73.6662 18.9851 72.7767 18.4339 72.0463 17.7036C71.316 16.9733 70.7647 16.0837 70.4358 15.1047C70.3528 14.8558 70.1936 14.6394 69.9808 14.4861C69.768 14.3327 69.5123 14.2502 69.25 14.2502C68.9877 14.2502 68.732 14.3327 68.5192 14.4861C68.3064 14.6394 68.1472 14.8558 68.0642 15.1047C67.7352 16.0837 67.184 16.9733 66.4536 17.7036C65.7233 18.4339 64.8337 18.9851 63.8547 19.3141C63.6057 19.397 63.3892 19.5561 63.2357 19.769C63.0823 19.9819 62.9997 20.2376 62.9997 20.5C62.9997 20.7624 63.0823 21.0181 63.2357 21.231C63.3892 21.4438 63.6057 21.603 63.8547 21.6859C64.8337 22.0149 65.7233 22.5661 66.4536 23.2964C67.184 24.0267 67.7352 24.9163 68.0642 25.8953C68.1472 26.1441 68.3064 26.3606 68.5192 26.5139C68.732 26.6673 68.9877 26.7498 69.25 26.7498C69.5123 26.7498 69.768 26.6673 69.9808 26.5139C70.1936 26.3606 70.3528 26.1441 70.4358 25.8953C70.7647 24.9163 71.316 24.0267 72.0463 23.2964C72.7767 22.5661 73.6662 22.0149 74.6453 21.6859C74.8942 21.603 75.1108 21.4438 75.2642 21.231C75.4177 21.0181 75.5003 20.7624 75.5003 20.5C75.5003 20.2376 75.4177 19.9819 75.2642 19.769C75.1108 19.5561 74.8942 19.397 74.6453 19.3141ZM69.25 22.7551C68.6345 21.8786 67.8715 21.1155 66.995 20.5C67.8715 19.8845 68.6345 19.1214 69.25 18.2448C69.8654 19.1214 70.6284 19.8845 71.505 20.5C70.6284 21.1155 69.8654 21.8786 69.25 22.7551Z" fill="#59B130"/>
<path d="M6.75 56.75C7.01234 56.75 7.26802 56.6674 7.48084 56.514C7.69366 56.3606 7.85282 56.1442 7.93578 55.8953C8.26474 54.9162 8.816 54.0267 9.54634 53.2964C10.2767 52.5661 11.1662 52.0148 12.1453 51.6859C12.3943 51.603 12.6108 51.4438 12.7643 51.231C12.9177 51.0181 13.0003 50.7624 13.0003 50.5C13.0003 50.2376 12.9177 49.9818 12.7643 49.769C12.6108 49.5561 12.3943 49.397 12.1453 49.3141C11.1662 48.9851 10.2767 48.4339 9.54634 47.7036C8.816 46.9733 8.26474 46.0837 7.93578 45.1047C7.85279 44.8558 7.69361 44.6394 7.4808 44.4861C7.26798 44.3327 7.01232 44.2502 6.75 44.2502C6.48769 44.2502 6.23202 44.3327 6.01921 44.4861C5.80639 44.6394 5.64722 44.8558 5.56422 45.1047C5.23527 46.0837 4.68401 46.9733 3.95367 47.7036C3.22333 48.4339 2.33375 48.9851 1.35469 49.3141C1.10574 49.397 0.889199 49.5561 0.73575 49.769C0.582301 49.9818 0.499725 50.2376 0.499725 50.5C0.499725 50.7624 0.582301 51.0181 0.73575 51.231C0.889199 51.4438 1.10574 51.603 1.35469 51.6859C2.33375 52.0148 3.22333 52.5661 3.95367 53.2964C4.68401 54.0267 5.23527 54.9162 5.56422 55.8953C5.64719 56.1442 5.80635 56.3606 6.01916 56.514C6.23198 56.6674 6.48766 56.75 6.75 56.75ZM6.75 48.2448C7.36545 49.1214 8.12845 49.8845 9.005 50.5C8.12845 51.1155 7.36545 51.8786 6.75 52.7551C6.13455 51.8786 5.37155 51.1155 4.495 50.5C5.37155 49.8845 6.13455 49.1214 6.75 48.2448Z" fill="#59B130"/>
</svg>
