<svg  viewBox="0 0 80 80" fill="none" xmlns="http://www.w3.org/2000/svg">
<path d="M63.1667 49.2828C61.5967 46.0096 55.98 41.4661 50.5534 37.0761C47.5267 34.6294 44.6667 32.3161 42.8434 30.4928C42.3867 30.0328 41.7034 29.8861 41.1001 30.1028C39.9769 30.5096 39.2834 30.8228 38.7369 31.0661C37.9036 31.4394 37.6236 31.5661 36.5001 31.6794C36.0034 31.7294 35.5569 31.9961 35.2801 32.4094C32.9234 35.9327 30.4834 35.6327 28.8534 35.0861C28.3334 34.9128 28.2401 34.6894 28.1901 34.4761C27.8401 33.0128 29.5969 29.6061 31.8734 27.3294C37.2901 21.9094 40.0834 20.5527 45.9834 23.1894C52.6767 26.1827 59.3834 28.5261 59.4501 28.5494C60.3269 28.8527 61.2701 28.3927 61.5734 27.5227C61.8734 26.6527 61.4167 25.7027 60.5467 25.3994C60.48 25.3761 53.9067 23.0794 47.3467 20.1427C39.7034 16.726 35.51 18.976 29.52 24.9694C27.24 27.2494 24.1433 31.8627 24.9433 35.2461C25.2865 36.6861 26.3 37.7528 27.8065 38.2494C31.5833 39.4961 35.0298 38.3027 37.5965 34.8961C38.6565 34.7328 39.2333 34.4928 40.0998 34.1028C40.4131 33.9628 40.7798 33.7996 41.2665 33.6028C43.1733 35.3928 45.7465 37.4761 48.4565 39.6661C53.3565 43.6294 58.9133 48.1228 60.1633 50.7228C60.78 52.0061 60.1165 52.8428 59.6665 53.2261C59.0065 53.7928 58.1033 53.9728 57.6133 53.6294C57.0733 53.2594 56.37 53.2361 55.8133 53.5694C55.2533 53.9027 54.94 54.5327 55.01 55.1794C55.1233 56.2394 54.1533 56.8461 53.7333 57.0561C52.6665 57.5961 51.5533 57.5028 51.1365 57.1161C50.6698 56.6828 49.9998 56.5561 49.4065 56.7761C48.8133 56.9994 48.3998 57.5461 48.3398 58.1794C48.2398 59.2727 47.4298 60.3227 46.3731 60.7327C45.8631 60.926 45.1231 61.0427 44.4598 60.436C44.0465 60.0627 43.4731 59.9193 42.9365 60.0493C42.3933 60.1825 41.9565 60.576 41.7665 61.0993C41.7033 61.266 41.5598 61.666 39.9998 61.666C38.8898 61.666 36.8931 60.916 35.9165 60.2692C34.7465 59.4992 27.4098 54.026 21.0733 48.7192C20.1833 47.9692 18.6433 46.3625 17.2833 44.9425C16.0765 43.6825 14.9733 42.5392 14.4065 42.0592C13.6965 41.4592 12.6465 41.5492 12.0565 42.256C11.4633 42.9592 11.5498 44.0127 12.2533 44.606C12.77 45.0427 13.77 46.0992 14.8733 47.2492C16.36 48.8025 17.8965 50.4092 18.93 51.276C25.1367 56.4727 32.5967 62.0827 34.0833 63.0593C35.31 63.866 37.9533 64.9993 40 64.9993C41.6433 64.9993 42.9067 64.6225 43.7833 63.886C44.9565 64.3427 46.29 64.346 47.5733 63.846C49.09 63.2593 50.3365 62.076 51.0433 60.6427C52.3565 60.9227 53.86 60.726 55.2265 60.0394C56.5633 59.3661 57.5298 58.3361 58.0098 57.1327C59.3365 57.2027 60.7031 56.7327 61.8331 55.7627C63.7467 54.1261 64.2733 51.5796 63.1667 49.2828Z" fill="#59B130"/>
<path d="M33.3333 21.6661H18.3333C17.4133 21.6661 16.6666 22.4129 16.6666 23.3329C16.6666 24.2529 17.4133 24.9996 18.3333 24.9996H33.3333C34.2533 24.9996 35 24.2529 35 23.3329C35 22.4129 34.2533 21.6661 33.3333 21.6661Z" fill="#59B130"/>
<path d="M68.05 45.7361C67.5333 44.9728 66.5 44.7628 65.7367 45.2828L60.8635 48.5561C60.1002 49.0694 59.8967 50.1061 60.4102 50.8694C60.7335 51.3461 61.2602 51.6061 61.7969 51.6061C62.1136 51.6061 62.4369 51.5161 62.7236 51.3228L67.5969 48.0495C68.36 47.5361 68.5633 46.4995 68.05 45.7361Z" fill="#59B130"/>
<path d="M57.7033 53.6895C56.51 52.7495 51.1733 47.2862 47.8733 43.8462C47.2366 43.1795 46.18 43.1562 45.5166 43.7962C44.8499 44.4329 44.8299 45.4895 45.4666 46.1529C46.3233 47.0462 53.8799 54.9229 55.6366 56.3097C55.9399 56.5497 56.3066 56.6664 56.6666 56.6664C57.1566 56.6664 57.6466 56.4464 57.9799 56.0297C58.55 55.3095 58.4267 54.2595 57.7033 53.6895Z" fill="#59B130"/>
<path d="M51.0433 57.0328C49.0466 55.4361 44.03 50.1061 42.8966 48.8728C42.2698 48.1928 41.2198 48.1528 40.5398 48.7728C39.8631 49.3961 39.8166 50.4528 40.4398 51.1296C40.4998 51.1928 46.4866 57.6563 48.9598 59.6363C49.2666 59.8796 49.6366 59.9996 49.9998 59.9996C50.4866 59.9996 50.9731 59.7828 51.3031 59.3763C51.8767 58.6561 51.76 57.6061 51.0433 57.0328Z" fill="#59B130"/>
<path d="M44.41 60.3895C42.0333 58.3862 37.17 53.2095 36.22 52.1928C35.59 51.5195 34.5333 51.4828 33.8633 52.1128C33.19 52.7428 33.1565 53.7961 33.7833 54.4695C35.15 55.9328 39.8033 60.8662 42.26 62.9395C42.5733 63.2028 42.9533 63.3328 43.3333 63.3328C43.8066 63.3328 44.28 63.1295 44.61 62.7395C45.2033 62.0328 45.1133 60.9828 44.41 60.3895Z" fill="#59B130"/>
<path d="M19.48 18.7895C16.6233 16.0828 5.2 15.2061 1.76672 15.0028C1.29344 14.9795 0.856719 15.1361 0.523437 15.4528C0.19 15.7661 0 16.2061 0 16.6661V46.6661C0 47.5861 0.746719 48.3328 1.66672 48.3328H11.6667C12.3867 48.3328 13.0267 47.8695 13.25 47.1828C13.4933 46.4361 19.2367 28.8095 19.9933 20.1428C20.0367 19.6361 19.85 19.1361 19.48 18.7895ZM10.45 44.9995H3.33328V18.4528C8.69 18.8761 14.47 19.7961 16.57 20.8161C15.6867 28.1161 11.69 41.0861 10.45 44.9995Z" fill="#59B130"/>
<path d="M78.3332 18.3328C65.2465 18.3328 57.9865 21.6828 57.6832 21.8228C57.25 22.0261 56.9265 22.4028 56.7932 22.8595C56.66 23.3163 56.7265 23.8063 56.9765 24.2128C59.0365 27.5295 65.4865 45.9495 66.7265 50.4428C66.9265 51.1661 67.5832 51.6661 68.3332 51.6661H78.3332C79.2532 51.6661 80 50.9194 80 49.9994V19.9994C80 19.0761 79.2532 18.3328 78.3332 18.3328ZM76.6667 48.3328H69.58C68 43.1861 63.3332 29.7661 60.73 24.2195C63.2732 23.3563 68.7367 21.8728 76.6667 21.6863V48.3328Z" fill="#59B130"/>
</svg>
