<svg width="71" height="72" viewBox="0 0 71 72" fill="none" xmlns="http://www.w3.org/2000/svg">
<path d="M60.0366 59.7905L60.4642 56.328L58.2942 56.0532L57.8666 59.5156H54.5853V61.7323H57.8666C58.968 61.7323 59.901 60.8977 60.0366 59.7905Z" fill="#59B130"/>
<path d="M67.6983 24.2495C67.7005 24.1819 67.7103 24.1154 67.7103 24.0489C67.7103 21.3402 65.782 19.0792 63.2435 18.6004C62.771 16.0279 60.5397 14.0739 57.8666 14.0739C56.075 14.0739 54.4464 14.9451 53.4303 16.397C52.4066 16.1875 51.3752 16.2939 50.44 16.6575C49.4534 15.0748 47.7253 14.0739 45.8353 14.0739C43.6347 14.0739 41.667 15.4305 40.8161 17.4211C40.1478 17.3568 39.5003 17.4311 38.8627 17.6217C37.6235 16.08 35.7903 15.1823 33.8041 15.1823C32.1219 15.1823 30.5917 15.8317 29.4291 16.8891V6.3156C29.4291 3.87061 27.4669 1.88226 25.0541 1.88226C22.6413 1.88226 20.6791 3.87061 20.6791 6.3156V43.9989H18.4916C16.6825 43.9989 15.2103 45.4908 15.2103 47.3239V50.6489H7.55408C4.53861 50.6489 2.08533 53.1349 2.08533 56.1906V59.5156H4.27283V70.5989H45.8353V66.1656H58.3795C61.1325 66.1656 63.4655 64.0786 63.81 61.2801L66.516 32.9156H66.6166C68.4256 32.9156 69.8978 31.4238 69.8978 29.5906V27.3739C69.8978 25.9264 68.9747 24.7051 67.6983 24.2495ZM33.8041 17.3989C35.331 17.3989 36.7222 18.2003 37.5283 19.5424L38.0467 20.4047L38.9425 19.9625C39.6677 19.6056 40.2977 19.4826 41.258 19.7608L42.3856 20.0855L42.6285 18.924C42.9456 17.3978 44.2953 16.2906 45.8353 16.2906C47.2167 16.2906 48.4549 17.1883 48.9164 18.525L49.3856 19.8838L50.5625 19.0769C51.4156 18.4929 52.4755 18.32 53.5528 18.7334L54.4891 19.0925L54.9244 18.1792C55.4789 17.0143 56.6077 16.2906 57.8666 16.2906C59.6756 16.2906 61.1478 17.7824 61.1478 19.6156V20.7239H62.2416C64.0506 20.7239 65.5228 22.2157 65.5228 24.0489H30.5228C30.1378 24.0489 29.7725 24.1287 29.4291 24.2529V21.8323C29.4291 19.3873 31.3913 17.3989 33.8041 17.3989ZM30.6235 32.9156L31.6811 44.0056C31.6592 44.0056 31.6385 43.9989 31.6166 43.9989H29.4291V32.7117C29.7725 32.8358 30.1378 32.9156 30.5228 32.9156H30.6235ZM22.8666 6.3156C22.8666 5.09311 23.8477 4.09893 25.0541 4.09893C26.2605 4.09893 27.2416 5.09311 27.2416 6.3156V27.3739V29.5906V43.9989H22.8666V6.3156ZM17.3978 47.3239C17.3978 46.7132 17.8889 46.2156 18.4916 46.2156H31.6166C32.2192 46.2156 32.7103 46.7132 32.7103 47.3239V50.6489H17.3978V47.3239ZM4.27283 56.1906C4.27283 54.3574 5.74501 52.8656 7.55408 52.8656H42.5541C44.3631 52.8656 45.8353 54.3574 45.8353 56.1906V57.2989H4.27283V56.1906ZM30.5228 61.7323V68.3823H28.3353V59.5156H34.8978V68.3823H32.7103V61.7323H30.5228ZM21.7728 61.7323V68.3823H19.5853V59.5156H26.1478V68.3823H23.9603V61.7323H21.7728ZM13.0228 61.7323V68.3823H10.8353V59.5156H17.3978V68.3823H15.2103V61.7323H13.0228ZM6.46033 59.5156H8.64783V68.3823H6.46033V59.5156ZM41.4603 68.3823V61.7323H39.2728V68.3823H37.0853V59.5156H43.6478V68.3823H41.4603ZM61.6356 61.0362C61.4311 62.6965 60.0311 63.9489 58.3795 63.9489H45.8353V59.5156H48.0228V56.1906C48.0228 53.1349 45.5695 50.6489 42.5541 50.6489H34.8978V47.3239C34.8978 46.4306 34.5445 45.6226 33.9769 45.0241L32.8208 32.9156H64.3186L61.6356 61.0362ZM67.7103 29.5906C67.7103 30.2013 67.2192 30.6989 66.6166 30.6989H30.5228C29.9202 30.6989 29.4291 30.2013 29.4291 29.5906V27.3739C29.4291 26.7632 29.9202 26.2656 30.5228 26.2656H66.6166C67.2192 26.2656 67.7103 26.7632 67.7103 27.3739V29.5906Z" fill="#59B130"/>
<path d="M66.6166 14.074C68.4256 14.074 69.8978 12.5821 69.8978 10.749C69.8978 8.91577 68.4256 7.42395 66.6166 7.42395C64.8075 7.42395 63.3353 8.91577 63.3353 10.749C63.3353 12.5821 64.8075 14.074 66.6166 14.074ZM66.6166 9.64062C67.2192 9.64062 67.7103 10.1383 67.7103 10.749C67.7103 11.3596 67.2192 11.8573 66.6166 11.8573C66.0139 11.8573 65.5228 11.3596 65.5228 10.749C65.5228 10.1383 66.0139 9.64062 66.6166 9.64062Z" fill="#59B130"/>
<path d="M42.5541 11.8573C44.3631 11.8573 45.8353 10.3655 45.8353 8.53228C45.8353 6.69909 44.3631 5.20728 42.5541 5.20728C40.745 5.20728 39.2728 6.69909 39.2728 8.53228C39.2728 10.3655 40.745 11.8573 42.5541 11.8573ZM42.5541 7.42394C43.1567 7.42394 43.6478 7.92158 43.6478 8.53228C43.6478 9.14297 43.1567 9.64061 42.5541 9.64061C41.9514 9.64061 41.4603 9.14297 41.4603 8.53228C41.4603 7.92158 41.9514 7.42394 42.5541 7.42394Z" fill="#59B130"/>
<path d="M57.8666 10.7489C60.2794 10.7489 62.2416 8.76058 62.2416 6.3156C62.2416 3.87061 60.2794 1.88226 57.8666 1.88226C55.4538 1.88226 53.4916 3.87061 53.4916 6.3156C53.4916 8.76058 55.4538 10.7489 57.8666 10.7489ZM57.8666 4.09893C59.073 4.09893 60.0541 5.0931 60.0541 6.3156C60.0541 7.53809 59.073 8.53226 57.8666 8.53226C56.6602 8.53226 55.6791 7.53809 55.6791 6.3156C55.6791 5.0931 56.6602 4.09893 57.8666 4.09893Z" fill="#59B130"/>
<path d="M50.2103 59.5156H52.3978V61.7323H50.2103V59.5156Z" fill="#59B130"/>
<path d="M39.2728 35.1323H41.4603V37.3489H39.2728V35.1323Z" fill="#59B130"/>
<path d="M34.8978 35.1323H37.0853V37.3489H34.8978V35.1323Z" fill="#59B130"/>
<path d="M43.6478 35.1323H45.8353V37.3489H43.6478V35.1323Z" fill="#59B130"/>
<path d="M7.55408 40.6739C9.36314 40.6739 10.8353 39.1821 10.8353 37.3489C10.8353 35.5157 9.36314 34.0239 7.55408 34.0239C5.74501 34.0239 4.27283 35.5157 4.27283 37.3489C4.27283 39.1821 5.74501 40.6739 7.55408 40.6739ZM7.55408 36.2406C8.15673 36.2406 8.64783 36.7382 8.64783 37.3489C8.64783 37.9596 8.15673 38.4573 7.55408 38.4573C6.95142 38.4573 6.46033 37.9596 6.46033 37.3489C6.46033 36.7382 6.95142 36.2406 7.55408 36.2406Z" fill="#59B130"/>
<path d="M14.1166 27.3739C16.5294 27.3739 18.4916 25.3856 18.4916 22.9406C18.4916 20.4956 16.5294 18.5073 14.1166 18.5073C11.7038 18.5073 9.74158 20.4956 9.74158 22.9406C9.74158 25.3856 11.7038 27.3739 14.1166 27.3739ZM14.1166 20.7239C15.323 20.7239 16.3041 21.7181 16.3041 22.9406C16.3041 24.1631 15.323 25.1573 14.1166 25.1573C12.9102 25.1573 11.9291 24.1631 11.9291 22.9406C11.9291 21.7181 12.9102 20.7239 14.1166 20.7239Z" fill="#59B130"/>
<path d="M7.55408 15.1823C9.36314 15.1823 10.8353 13.6905 10.8353 11.8573C10.8353 10.0241 9.36314 8.53229 7.55408 8.53229C5.74501 8.53229 4.27283 10.0241 4.27283 11.8573C4.27283 13.6905 5.74501 15.1823 7.55408 15.1823ZM7.55408 10.749C8.15673 10.749 8.64783 11.2466 8.64783 11.8573C8.64783 12.468 8.15673 12.9656 7.55408 12.9656C6.95142 12.9656 6.46033 12.468 6.46033 11.8573C6.46033 11.2466 6.95142 10.749 7.55408 10.749Z" fill="#59B130"/>
</svg>
