<svg width="71" height="72" viewBox="0 0 71 72" fill="none" xmlns="http://www.w3.org/2000/svg">
<path d="M60.9258 21.2106V7.46446C60.9258 6.85353 60.4358 6.35769 59.832 6.35769H51.082C50.4783 6.35769 49.9883 6.85353 49.9883 7.46446V13.1964L36.4105 3.24767C36.0276 2.96766 35.5103 2.96766 35.1275 3.24767L3.40874 26.4899C3.02484 26.771 2.86296 27.2712 3.00952 27.7272C3.15609 28.1843 3.57609 28.4931 4.05077 28.4931H8.42577V68.3369C8.42577 68.9478 8.91577 69.4436 9.51952 69.4436H62.0195C62.6233 69.4436 63.1133 68.9478 63.1133 68.3369V28.4931H67.4883C67.963 28.4931 68.3829 28.1843 68.5284 27.7272C68.675 27.2712 68.5131 26.771 68.1292 26.4899L60.9258 21.2106ZM52.1758 8.57124H58.7383V19.608L52.1758 14.799V8.57124ZM62.0195 26.2796H55.457V28.4931H60.9258V67.2301H29.3098C30.6136 67.2245 31.9108 66.9224 33.115 66.3247C35.2139 65.2833 36.7856 63.4781 37.5425 61.2402L39.6665 54.9571L40.0209 53.9101C40.5886 52.2311 40.4759 50.4304 39.7037 48.8378C39.0956 47.5827 38.1266 46.5888 36.9355 45.938L45.82 19.6555L46.5276 17.5615C47.1139 15.8305 46.1973 13.938 44.4856 13.3447C42.7728 12.7537 40.9047 13.679 40.3184 15.4122L39.6108 17.5062L30.7284 43.7787C29.3919 43.5552 28.0225 43.7499 26.7822 44.3653C25.2083 45.1467 24.0281 46.5003 23.4616 48.1781L23.1072 49.2251L20.9831 55.5083C20.8814 55.8093 20.7578 56.1048 20.6167 56.3859L22.5647 57.3909C22.7528 57.0179 22.918 56.625 23.0525 56.2244L24.8233 50.9882L28.962 52.4215L27.9 55.5636L29.9705 56.2797L31.0325 53.1376L33.1019 53.8537L30.9778 60.1368C30.0022 63.0221 26.8905 64.5672 24.0369 63.5822L18.1186 61.5335C19.2003 61.0831 20.2 60.4113 21.0422 59.538L19.4759 57.993C17.715 59.8203 15.0331 60.4655 12.6498 59.641C12.0767 59.444 11.4566 59.7516 11.2608 60.3305C11.065 60.9082 11.3701 61.538 11.9422 61.7361L23.3259 65.6762C23.327 65.6762 23.3292 65.6773 23.3303 65.6773L26.4311 66.7509C27.3509 67.0696 28.3003 67.2268 29.2453 67.2301H10.6133V28.4931H16.082V26.2796H9.51952H7.42609L35.7695 5.51101L64.113 26.2796H62.0195ZM25.5342 48.8942C26.3141 46.5855 28.8067 45.3459 31.0894 46.1384L35.2292 47.5716C36.335 47.9546 37.2275 48.7492 37.7416 49.8117C38.2556 50.8731 38.3311 52.074 37.9526 53.1929L25.5342 48.8942ZM32.8317 44.4018L41.328 19.2693L43.3973 19.9854L34.9011 45.1179L33.8664 44.7593L32.8317 44.4018ZM44.4594 16.8443L44.1061 17.8914L42.0356 17.1753L42.3889 16.1283C42.5847 15.5505 43.207 15.2429 43.778 15.4376C44.35 15.6369 44.6551 16.2666 44.4594 16.8443ZM37.2439 55.2869L35.4742 60.5219C34.9066 62.2009 33.7275 63.5545 32.1536 64.3359C31.3639 64.7277 30.5217 64.9512 29.6697 65.0044C31.1966 64.099 32.4336 62.6768 33.0505 60.854L35.1745 54.5708L37.2439 55.2869Z" fill="#59B130"/>
<path d="M26.4849 59.774L27.1937 57.68L29.263 58.3972L28.5543 60.4912L26.4849 59.774Z" fill="#59B130"/>
<path d="M48.8945 36.2405H51.082V38.454H48.8945V36.2405Z" fill="#59B130"/>
<path d="M51.082 38.454H53.2695V40.6676H51.082V38.454Z" fill="#59B130"/>
<path d="M48.8945 40.6676H51.082V42.8811H48.8945V40.6676Z" fill="#59B130"/>
<path d="M46.707 38.454H48.8945V40.6676H46.707V38.454Z" fill="#59B130"/>
<path d="M24.832 24.066H27.0195V26.2796H24.832V24.066Z" fill="#59B130"/>
<path d="M27.0195 26.2795H29.207V28.4931H27.0195V26.2795Z" fill="#59B130"/>
<path d="M24.832 28.4931H27.0195V30.7066H24.832V28.4931Z" fill="#59B130"/>
<path d="M22.6445 26.2795H24.832V28.4931H22.6445V26.2795Z" fill="#59B130"/>
</svg>
