<svg width="71" height="71" viewBox="0 0 71 71" fill="none" xmlns="http://www.w3.org/2000/svg">
<g clip-path="url(#clip0)">
<path d="M65.2079 62.3152H62.9507V64.5725H65.2079V62.3152Z" fill="#59B130"/>
<path d="M42.6353 63.4438H40.378V65.7011H42.6353V63.4438Z" fill="#59B130"/>
<path d="M70.7724 62.3628C70.6154 61.4134 70.2579 60.5084 69.7236 59.7081V39.7426C69.7154 34.6338 66.5811 30.0506 61.8232 28.1899V23.9417C61.8232 23.3185 61.3178 22.8131 60.6945 22.8131H54.39L57.7759 19.4272H65.2091C65.5084 19.4272 65.7954 19.3081 66.007 19.0965L70.5215 14.582C70.7332 14.3704 70.8522 14.0834 70.8522 13.7841V8.1409C70.8522 7.84153 70.7332 7.55458 70.5215 7.34296L66.007 2.82843C65.7954 2.61681 65.5084 2.49774 65.2091 2.49774H60.6945V1.36911C60.6945 0.745823 60.1892 0.240479 59.5659 0.240479H43.7651C43.4657 0.240479 43.1787 0.359549 42.9671 0.571168L33.9381 9.60022L11.6216 31.9167L5.20536 32.9866V33.0058C4.97427 33.037 4.75899 33.1405 4.59025 33.3015L1.20436 36.6874C0.763769 37.1281 0.763769 37.8425 1.20436 38.2833L11.362 48.441C11.8028 48.8815 12.5172 48.8815 12.9579 48.441L16.3438 45.0551C16.5055 44.8863 16.6091 44.6705 16.6395 44.4388H16.6587L17.7287 38.0237L40.0485 15.7106L48.7468 7.01227H59.5659C60.1892 7.01227 60.6945 6.50692 60.6945 5.88364V4.75501H64.7418L68.595 8.60815V13.3168L64.7418 17.17H57.3086C57.0093 17.17 56.7223 17.289 56.5107 17.5006L51.1982 22.8131H44.8937C44.2704 22.8131 43.7651 23.3185 43.7651 23.9417V28.1899C39.0072 30.0506 35.873 34.6338 35.8646 39.7426V64.5725C35.8646 67.6891 38.3912 70.2156 41.5078 70.2156C44.6244 70.2156 47.151 67.6891 47.151 64.5725H57.4102C58.0204 68.2623 61.5063 70.7588 65.1961 70.1486C68.886 69.5385 71.3825 66.0525 70.7724 62.3628ZM12.1634 46.0471L3.60157 37.4853L5.39158 35.6953L13.9534 44.2571L12.1634 46.0471ZM15.88 36.6874C15.7136 36.8539 15.6036 37.0682 15.5651 37.3002L14.7965 41.9084L7.74027 34.8522L12.3496 34.0836C12.5812 34.0448 12.7951 33.9348 12.9613 33.7687L34.736 11.994L37.6547 14.9127L15.88 36.6874ZM39.2505 13.3168L36.3319 10.3982L43.7651 2.965L46.6837 5.88364L39.2505 13.3168ZM58.4373 4.75501H48.7468L46.4896 2.49774H58.4373V4.75501ZM46.0223 25.0704H59.5659V27.5432C58.8217 27.4026 58.0661 27.3305 57.3086 27.3276H48.2796C47.5221 27.3305 46.7667 27.4026 46.0223 27.5432V25.0704ZM48.2796 29.5849H57.3086C62.4796 29.5911 66.823 33.4757 67.4043 38.614H38.184C38.7651 33.4757 43.1086 29.5911 48.2796 29.5849ZM38.1219 40.8712H67.4663V43.1285H38.1219V40.8712ZM67.4663 45.3857V49.9003H60.6945V45.3857H67.4663ZM38.1219 45.3857H58.4373V47.643H38.1219V45.3857ZM38.1219 49.9003H58.4373V51.0289C58.4373 51.6522 58.9426 52.1575 59.5659 52.1575H67.4663V57.5885C66.7688 57.1839 66.0042 56.9079 65.2091 56.7736V55.5434C65.2091 54.9201 64.7037 54.4148 64.0804 54.4148H41.5078C40.8845 54.4148 40.3792 54.9201 40.3792 55.5434V59.0422C39.5579 59.2163 38.7864 59.5731 38.1219 60.0862V49.9003ZM41.5078 67.9584C39.6378 67.9584 38.1219 66.4425 38.1219 64.5725C38.1219 62.7025 39.6378 61.1866 41.5078 61.1866C43.3778 61.1866 44.8937 62.7025 44.8937 64.5725C44.8937 66.4425 43.3778 67.9584 41.5078 67.9584ZM57.4102 62.3152H46.6724C45.9371 60.6345 44.4328 59.4145 42.6364 59.0422V56.6721H62.9518V56.7736C60.1161 57.2582 57.8948 59.4795 57.4102 62.3152ZM64.0804 67.9584C61.5872 67.9584 59.5659 65.9371 59.5659 63.4439C59.5659 60.9506 61.5872 58.9293 64.0804 58.9293C66.5737 58.9293 68.595 60.9506 68.595 63.4439C68.595 65.9371 66.5737 67.9584 64.0804 67.9584Z" fill="#59B130"/>
<path d="M7.64769 48.7716C7.64769 46.9016 6.1318 45.3857 4.2618 45.3857C2.39179 45.3857 0.8759 46.9016 0.8759 48.7716C0.8759 50.6416 2.39179 52.1575 4.2618 52.1575C6.1318 52.1575 7.64769 50.6416 7.64769 48.7716ZM3.13316 48.7716C3.13316 48.1483 3.63851 47.643 4.2618 47.643C4.88508 47.643 5.39043 48.1483 5.39043 48.7716C5.39043 49.3949 4.88508 49.9003 4.2618 49.9003C3.63851 49.9003 3.13316 49.3949 3.13316 48.7716Z" fill="#59B130"/>
<path d="M5.39043 61.1866C2.89714 61.1866 0.8759 63.2078 0.8759 65.7011C0.8759 68.1944 2.89714 70.2156 5.39043 70.2156C7.88372 70.2156 9.90495 68.1944 9.90495 65.7011C9.90495 63.2078 7.88372 61.1866 5.39043 61.1866ZM5.39043 67.9584C4.14371 67.9584 3.13316 66.9478 3.13316 65.7011C3.13316 64.4544 4.14371 63.4438 5.39043 63.4438C6.63714 63.4438 7.64769 64.4544 7.64769 65.7011C7.64769 66.9478 6.63714 67.9584 5.39043 67.9584Z" fill="#59B130"/>
<path d="M11.0336 52.1576C9.16358 52.1576 7.64769 53.6735 7.64769 55.5435C7.64769 57.4135 9.16358 58.9294 11.0336 58.9294C12.9036 58.9294 14.4195 57.4135 14.4195 55.5435C14.4195 53.6735 12.9036 52.1576 11.0336 52.1576ZM11.0336 56.6721C10.4103 56.6721 9.90495 56.1668 9.90495 55.5435C9.90495 54.9202 10.4103 54.4149 11.0336 54.4149C11.6569 54.4149 12.1622 54.9202 12.1622 55.5435C12.1622 56.1668 11.6569 56.6721 11.0336 56.6721Z" fill="#59B130"/>
<path d="M21.1913 55.5435C19.3213 55.5435 17.8054 57.0594 17.8054 58.9294C17.8054 60.7994 19.3213 62.3152 21.1913 62.3152C23.0613 62.3152 24.5772 60.7994 24.5772 58.9294C24.5772 57.0594 23.0613 55.5435 21.1913 55.5435ZM21.1913 60.058C20.568 60.058 20.0627 59.5526 20.0627 58.9294C20.0627 58.3061 20.568 57.8007 21.1913 57.8007C21.8146 57.8007 22.3199 58.3061 22.3199 58.9294C22.3199 59.5526 21.8146 60.058 21.1913 60.058Z" fill="#59B130"/>
<path d="M22.3199 43.1285C19.8266 43.1285 17.8054 45.1497 17.8054 47.643C17.8054 50.1363 19.8266 52.1575 22.3199 52.1575C24.8132 52.1575 26.8344 50.1363 26.8344 47.643C26.8344 45.1497 24.8132 43.1285 22.3199 43.1285ZM22.3199 49.9003C21.0732 49.9003 20.0627 48.8897 20.0627 47.643C20.0627 46.3963 21.0732 45.3857 22.3199 45.3857C23.5666 45.3857 24.5772 46.3963 24.5772 47.643C24.5772 48.8897 23.5666 49.9003 22.3199 49.9003Z" fill="#59B130"/>
<path d="M14.4195 61.1866H12.1622V63.4439H14.4195V61.1866Z" fill="#59B130"/>
<path d="M18.934 64.5725H16.6767V66.8298H18.934V64.5725Z" fill="#59B130"/>
</g>
<defs>
<clipPath id="clip0">
<rect width="70" height="70" fill="white" transform="translate(0.867859 0.240479)"/>
</clipPath>
</defs>
</svg>
