<svg width="71" height="71" viewBox="0 0 71 71" fill="none" xmlns="http://www.w3.org/2000/svg">
<g clip-path="url(#clip0)">
<path d="M57.7823 47.4986C57.7646 47.4113 57.7385 47.3265 57.7043 47.2431C57.6702 47.1611 57.6278 47.0817 57.5786 47.0078C57.5293 46.9326 57.4719 46.863 57.409 46.8C57.3461 46.7358 57.2764 46.6797 57.2012 46.6291C57.1274 46.5799 57.0481 46.5375 56.9647 46.5033C56.8827 46.4692 56.7967 46.4432 56.709 46.4254C56.5327 46.3899 56.3523 46.3899 56.176 46.4254C56.0883 46.4432 56.0022 46.4692 55.9203 46.5033C55.8369 46.5375 55.7576 46.5799 55.6838 46.6291C55.6086 46.6797 55.5388 46.7358 55.476 46.8C55.4131 46.8629 55.3556 46.9326 55.3051 47.0078C55.2558 47.0817 55.2148 47.1609 55.1806 47.2431C55.1465 47.3264 55.1191 47.4113 55.1013 47.4988C55.0849 47.5875 55.0755 47.6779 55.0755 47.7667C55.0755 47.8555 55.0849 47.9459 55.1013 48.0332C55.1191 48.1209 55.1465 48.207 55.1806 48.2889C55.2148 48.3723 55.2558 48.4516 55.3064 48.5254C55.3556 48.6006 55.4131 48.6703 55.476 48.7332C55.5388 48.7961 55.6086 48.8535 55.6838 48.9027C55.7576 48.952 55.8369 48.9943 55.9203 49.0285C56.0023 49.0627 56.0883 49.0887 56.176 49.1065C56.2635 49.1242 56.3537 49.1338 56.4426 49.1338C56.8021 49.1338 57.1549 48.9875 57.409 48.7331C57.4719 48.6702 57.5293 48.6005 57.5786 48.5253C57.6278 48.4514 57.6702 48.3721 57.7043 48.2887C57.7385 48.2067 57.7645 48.1207 57.7823 48.0331C57.8 47.9456 57.8096 47.8553 57.8096 47.7666C57.8096 47.6777 57.8 47.5875 57.7823 47.4986Z" fill="#59B130"/>
<path d="M37.6408 19.0996L38.1043 18.6361C38.6382 18.1022 38.6382 17.2365 38.1043 16.7025C37.5703 16.1687 36.7049 16.1687 36.1707 16.7025L35.7072 17.166L35.2438 16.7025C34.7099 16.1687 33.8442 16.1687 33.3101 16.7025C32.7763 17.2364 32.7763 18.1021 33.3101 18.6361L33.7736 19.0996L33.3101 19.5631C32.7765 20.0971 32.7765 20.9628 33.3104 21.4967C33.5774 21.7636 33.9273 21.8971 34.2772 21.8971C34.627 21.8971 34.977 21.7636 35.2439 21.4967L35.7074 21.0332L36.1708 21.4967C36.4379 21.7636 36.7877 21.8971 37.1376 21.8971C37.4876 21.8971 37.8373 21.7636 38.1043 21.4967C38.6382 20.9628 38.6382 20.0971 38.1043 19.5631L37.6408 19.0996Z" fill="#59B130"/>
<path d="M48.7308 27.557L49.1943 27.0935C49.7282 26.5596 49.7282 25.6939 49.1943 25.1599C48.6603 24.6261 47.7948 24.6261 47.2607 25.1599L46.7972 25.6234L46.3337 25.1599C45.7997 24.6261 44.9343 24.6261 44.4001 25.1599C43.8662 25.6938 43.8662 26.5595 44.4001 27.0935L44.8636 27.557L44.4001 28.0205C43.8664 28.5545 43.8664 29.4202 44.4004 29.9541C44.6674 30.2209 45.0173 30.3545 45.3671 30.3545C45.717 30.3545 46.0668 30.2209 46.3339 29.9541L46.7973 29.4906L47.2608 29.9541C47.5278 30.2209 47.8777 30.3545 48.2275 30.3545C48.5775 30.3545 48.9273 30.2209 49.1943 29.9541C49.7282 29.4202 49.7282 28.5545 49.1943 28.0205L48.7308 27.557Z" fill="#59B130"/>
<path d="M26.5512 27.557L27.0147 27.0935C27.5485 26.5596 27.5485 25.6939 27.0147 25.1599C26.4808 24.6261 25.6151 24.6261 25.081 25.1599L24.6176 25.6234L24.1541 25.1599C23.6202 24.6261 22.7545 24.6261 22.2205 25.1599C21.6866 25.6938 21.6866 26.5595 22.2205 27.0935L22.684 27.557L22.2205 28.0205C21.6869 28.5545 21.6869 29.4202 22.2208 29.9541C22.4878 30.2209 22.8376 30.3545 23.1875 30.3545C23.5374 30.3545 23.8874 30.2209 24.1542 29.9541L24.6177 29.4906L25.0812 29.9541C25.3482 30.2209 25.6981 30.3545 26.0479 30.3545C26.3978 30.3545 26.7478 30.2209 27.0147 29.9541C27.5485 29.4202 27.5485 28.5545 27.0147 28.0205L26.5512 27.557Z" fill="#59B130"/>
<path d="M70.6304 28.0975C70.1851 25.0243 67.7634 22.6131 64.7678 22.0742C62.1164 17.6958 57.3736 15.0044 52.2237 15.0044C51.7121 15.0044 51.1998 15.031 50.6919 15.0837C47.9112 9.35837 42.1409 5.71564 35.7074 5.71564C29.2737 5.71564 23.5036 9.35837 20.7231 15.0837C20.2151 15.031 19.7029 15.0044 19.1912 15.0044C14.0414 15.0044 9.29878 17.6955 6.64739 22.0739C3.65257 22.6123 1.22991 25.0237 0.78462 28.0973C0.515421 29.9548 0.956613 31.8107 2.02698 33.3233C2.8514 34.4882 3.98753 35.3716 5.29497 35.8803V48.4748C5.29497 50.9367 6.74241 53.0671 8.83106 54.0592L6.83224 63.1026C6.74282 63.5073 6.84167 63.9308 7.10116 64.2538C7.36065 64.5769 7.75276 64.7649 8.16716 64.7649H15.2439C15.7433 64.7649 16.2029 64.4925 16.4429 64.0546L18.7882 59.7735H52.627L54.9721 64.0546C55.2121 64.4925 55.6717 64.7649 56.1712 64.7649H63.2479C63.6623 64.7649 64.0542 64.5769 64.3139 64.2538C64.5733 63.9308 64.6723 63.5073 64.5829 63.1026L62.584 54.0592C64.6725 53.0669 66.1199 50.9369 66.1199 48.4748V35.8803C67.4275 35.3716 68.5633 34.4882 69.3879 33.3233C70.4583 31.8109 70.8996 29.9551 70.6304 28.0975ZM19.1913 17.739C19.9032 17.739 20.6159 17.802 21.3097 17.9263C21.9438 18.0397 22.5714 17.6953 22.8159 17.099C24.9691 11.8449 30.0293 8.45015 35.7075 8.45015C41.3856 8.45015 46.4458 11.845 48.5991 17.099C48.8436 17.6952 49.4703 18.0401 50.1055 17.9263C50.7991 17.802 51.5118 17.739 52.2237 17.739C55.9009 17.739 59.3236 19.4261 61.5643 22.2477C61.5575 22.2497 61.5506 22.2519 61.5439 22.254L61.5387 22.2556C61.5233 22.2604 61.508 22.265 61.4925 22.27C61.4913 22.2704 61.4901 22.2708 61.4888 22.2712C61.4213 22.2924 61.3542 22.3147 61.2874 22.338C61.2873 22.338 61.2872 22.3382 61.287 22.3382C60.9853 22.4437 60.6908 22.5709 60.4064 22.7189C60.4041 22.72 60.4019 22.7213 60.3997 22.7225C60.3872 22.7291 60.3746 22.7356 60.362 22.7423C60.3584 22.7442 60.3549 22.7461 60.3512 22.7481C60.3396 22.7542 60.3281 22.7604 60.3166 22.7667C60.3129 22.7687 60.3092 22.7706 60.3055 22.7727C60.2935 22.7792 60.2815 22.7858 60.2696 22.7924C60.2666 22.794 60.2634 22.7958 60.2604 22.7974C60.2455 22.8058 60.2305 22.814 60.2156 22.8224C60.1992 22.8316 60.1829 22.8409 60.1666 22.8503C58.3442 23.897 57.1324 25.7698 56.8717 27.8765C56.8671 27.9141 56.8627 27.9518 56.8587 27.9896C56.8546 28.0273 56.8509 28.0652 56.8475 28.1031C56.8423 28.1599 56.8379 28.2169 56.8341 28.2741C56.8316 28.3122 56.8295 28.3504 56.8275 28.3885C56.8219 28.5032 56.8191 28.6184 56.8191 28.734V35.286C56.7845 35.2751 56.7498 35.2641 56.7149 35.2533C56.7117 35.2524 56.7086 35.2513 56.7053 35.2503C56.6359 35.2287 56.5659 35.2074 56.4956 35.1863C56.4922 35.1852 56.4888 35.1843 56.4852 35.1832C56.4503 35.1728 56.4155 35.1624 56.3805 35.1521C56.3782 35.1515 56.3757 35.1508 56.3734 35.1501C56.3404 35.1405 56.3075 35.1308 56.2742 35.1214C56.2703 35.1203 56.2665 35.1192 56.2625 35.118C56.228 35.1081 56.1936 35.0983 56.159 35.0886C56.1546 35.0873 56.1504 35.0861 56.146 35.0849C56.1133 35.0757 56.0805 35.0666 56.0477 35.0575C56.0448 35.0567 56.042 35.0559 56.0391 35.0552C56.0046 35.0458 55.9702 35.0363 55.9356 35.027C55.9299 35.0255 55.9242 35.024 55.9185 35.0224C55.8847 35.0134 55.851 35.0043 55.8171 34.9955C55.8158 34.9951 55.8145 34.9948 55.8132 34.9944C55.7786 34.9852 55.7438 34.9762 55.709 34.9672C55.7028 34.9655 55.6966 34.964 55.6903 34.9624C55.6553 34.9534 55.6203 34.9445 55.5853 34.9356C55.5845 34.9353 55.5837 34.9352 55.5829 34.9349C55.5485 34.9263 55.5142 34.9177 55.4799 34.9092C55.4733 34.9076 55.4669 34.906 55.4604 34.9044C55.426 34.8959 55.3917 34.8876 55.3573 34.8793C55.3523 34.878 55.3473 34.8769 55.3424 34.8757C55.3116 34.8683 55.2807 34.8609 55.2499 34.8537C55.2431 34.852 55.2363 34.8504 55.2294 34.8489C55.1944 34.8407 55.1594 34.8325 55.1244 34.8244C55.1197 34.8233 55.1149 34.8222 55.1102 34.8211C55.0785 34.8139 55.0468 34.8067 55.0149 34.7995C55.0086 34.7982 55.0025 34.7967 54.9962 34.7953C54.9617 34.7875 54.9273 34.78 54.8927 34.7723C54.8853 34.7707 54.8779 34.7692 54.8706 34.7676C54.8395 34.7607 54.8083 34.754 54.777 34.7473C54.7718 34.7462 54.7666 34.7451 54.7616 34.744C54.7274 34.7368 54.6931 34.7295 54.6589 34.7223C54.65 34.7204 54.6411 34.7186 54.6323 34.7168C54.5983 34.7097 54.5643 34.7027 54.5303 34.6958C54.529 34.6955 54.5277 34.6952 54.5264 34.695C54.491 34.6877 54.4555 34.6806 54.4199 34.6735C54.4119 34.6718 54.4038 34.6703 54.3957 34.6687C54.3596 34.6616 54.3235 34.6545 54.2873 34.6475C54.2865 34.6474 54.2857 34.6472 54.2849 34.6471C54.2499 34.6404 54.2147 34.6337 54.1796 34.627C54.1715 34.6255 54.1634 34.624 54.1552 34.6225C54.1205 34.6159 54.0858 34.6095 54.0509 34.6031C54.0431 34.6017 54.0353 34.6002 54.0275 34.5988C53.9987 34.5936 53.9698 34.5884 53.941 34.5833C53.9312 34.5815 53.9213 34.5797 53.9115 34.5779C53.8772 34.5718 53.8428 34.5658 53.8084 34.5599C53.8006 34.5585 53.7928 34.5571 53.785 34.5558C53.7541 34.5504 53.7231 34.5451 53.692 34.5399C53.6852 34.5388 53.6784 34.5376 53.6715 34.5365C53.6361 34.5306 53.6007 34.5247 53.5652 34.5189C53.5563 34.5174 53.5474 34.516 53.5385 34.5145C53.5072 34.5094 53.4757 34.5044 53.4443 34.4993C53.4386 34.4984 53.433 34.4975 53.4272 34.4966C53.3923 34.4911 53.3575 34.4856 53.3226 34.4803C53.3117 34.4787 53.3007 34.477 53.2898 34.4752C53.2566 34.4702 53.2234 34.4651 53.19 34.4602C53.1873 34.4598 53.1845 34.4594 53.1818 34.459C53.1457 34.4536 53.1096 34.4483 53.0734 34.4431C53.064 34.4418 53.0545 34.4404 53.0451 34.439C53.0093 34.4338 52.9733 34.4288 52.9373 34.4237C52.9315 34.4229 52.9256 34.4221 52.9197 34.4212C52.8881 34.4169 52.8564 34.4125 52.8247 34.4083C52.815 34.407 52.8053 34.4057 52.7956 34.4043C52.7599 34.3995 52.7242 34.3949 52.6885 34.3902C52.6806 34.3891 52.6727 34.3882 52.6649 34.3872C52.6349 34.3834 52.6051 34.3795 52.5752 34.3757C52.5651 34.3745 52.555 34.3731 52.5448 34.3719C52.509 34.3674 52.4729 34.363 52.437 34.3586C52.4292 34.3577 52.4215 34.3567 52.4137 34.3559C52.383 34.3522 52.3522 34.3485 52.3213 34.345C52.3121 34.3439 52.3031 34.3428 52.294 34.3418C52.2585 34.3377 52.223 34.3337 52.1874 34.3298C52.1775 34.3287 52.1675 34.3276 52.1575 34.3265C52.1251 34.3229 52.0927 34.3194 52.0603 34.316C52.0547 34.3154 52.0491 34.3147 52.0435 34.3142C52.0066 34.3102 51.9697 34.3064 51.9327 34.3026C51.9233 34.3016 51.914 34.3007 51.9046 34.2997C51.8681 34.296 51.8316 34.2923 51.7951 34.2888L51.7907 34.2884C51.7523 34.2847 51.7137 34.281 51.6753 34.2774C51.6675 34.2767 51.6598 34.2759 51.6521 34.2752C51.614 34.2717 51.576 34.2683 51.538 34.2648C51.5324 34.2643 51.5267 34.2639 51.5211 34.2633C51.4873 34.2603 51.4535 34.2575 51.4198 34.2546C51.4113 34.2539 51.4028 34.2531 51.3943 34.2524C51.3565 34.2493 51.3186 34.2461 51.2807 34.2431C51.2749 34.2426 51.269 34.2421 51.263 34.2417C51.2285 34.239 51.194 34.2364 51.1596 34.2338C51.1522 34.2333 51.1447 34.2327 51.1373 34.2322C51.0996 34.2293 51.0618 34.2266 51.0241 34.224C51.0162 34.2234 51.0084 34.2229 51.0005 34.2223C50.9665 34.22 50.9325 34.2177 50.8985 34.2153C50.892 34.2149 50.8857 34.2145 50.8795 34.2141C50.8417 34.2117 50.804 34.2092 50.7663 34.2069C50.7568 34.2063 50.7473 34.2058 50.7377 34.2051C50.703 34.203 50.6682 34.2009 50.6334 34.1989L50.6209 34.1983C50.5821 34.1961 50.5431 34.1939 50.5042 34.1918C50.4958 34.1914 50.4876 34.191 50.4793 34.1905C50.4421 34.1885 50.4049 34.1866 50.3679 34.1849C50.364 34.1847 50.3603 34.1844 50.3566 34.1843C50.3192 34.1825 50.2817 34.1809 50.2441 34.1791C50.2352 34.1787 50.2262 34.1783 50.2173 34.1779C50.1788 34.1762 50.1402 34.1746 50.1015 34.1731C50.0965 34.1728 50.0913 34.1727 50.0862 34.1726C50.0516 34.1712 50.0169 34.17 49.9823 34.1687C49.9726 34.1683 49.9629 34.168 49.9532 34.1678C49.9156 34.1664 49.8779 34.1652 49.8403 34.1641C49.8325 34.1638 49.8245 34.1637 49.8167 34.1634C49.7832 34.1624 49.7498 34.1615 49.7161 34.1605C49.7083 34.1602 49.7007 34.1601 49.6929 34.1598C49.6547 34.1589 49.6165 34.1579 49.5783 34.1571C49.5687 34.1568 49.5593 34.1567 49.5497 34.1566C49.5161 34.1559 49.4823 34.1552 49.4486 34.1546C49.4423 34.1545 49.4358 34.1544 49.4296 34.1542C49.391 34.1535 49.3524 34.153 49.3138 34.1525C49.3041 34.1523 49.2943 34.1522 49.2846 34.152C49.2499 34.1516 49.2152 34.1512 49.1803 34.151C49.1753 34.151 49.1701 34.1508 49.165 34.1508C49.1259 34.1504 49.0867 34.1503 49.0476 34.15C49.0385 34.15 49.0294 34.1499 49.0204 34.1499C48.9807 34.1497 48.9412 34.1496 48.9016 34.1496C45.185 34.1496 41.6694 34.8226 39.0027 36.0446C38.9801 36.055 38.9577 36.0653 38.9354 36.0757C38.9264 36.0798 38.9174 36.084 38.9085 36.0883C38.8948 36.0947 38.881 36.1011 38.8675 36.1075C38.8585 36.1118 38.8496 36.116 38.8406 36.1202C38.827 36.1267 38.8135 36.133 38.8001 36.1394C38.7902 36.144 38.7805 36.1488 38.7707 36.1535C38.7587 36.1592 38.7465 36.1651 38.7345 36.1708C38.7243 36.1758 38.7144 36.1805 38.7042 36.1855C38.6917 36.1916 38.6791 36.1976 38.6665 36.2038C38.6576 36.2082 38.6486 36.2125 38.6397 36.2169C38.6267 36.2233 38.6137 36.2298 38.6007 36.2362C38.5916 36.2407 38.5826 36.2452 38.5734 36.2499C38.5606 36.2563 38.5476 36.2628 38.5347 36.2693C38.5264 36.2735 38.5179 36.2777 38.5096 36.282C38.496 36.2888 38.4826 36.2957 38.4691 36.3025C38.4605 36.3069 38.452 36.3112 38.4434 36.3156C38.4305 36.3222 38.4178 36.3287 38.4051 36.3353C38.3965 36.3397 38.388 36.3442 38.3794 36.3486C38.3668 36.355 38.3544 36.3616 38.3419 36.3681C38.3328 36.3729 38.3235 36.3777 38.3143 36.3826C38.3022 36.389 38.29 36.3955 38.2778 36.4019C38.2693 36.4064 38.2607 36.4109 38.2523 36.4154C38.2374 36.4234 38.2224 36.4313 38.2077 36.4394C38.2019 36.4424 38.1963 36.4455 38.1906 36.4485C38.174 36.4575 38.1575 36.4664 38.1411 36.4754C38.1366 36.4779 38.1319 36.4804 38.1274 36.4828C38.1067 36.4942 38.086 36.5055 38.0654 36.517C38.0648 36.5174 38.0641 36.5177 38.0636 36.518C38.0436 36.529 38.0238 36.5401 38.004 36.5512C37.9984 36.5543 37.9928 36.5576 37.987 36.5608C37.9723 36.5691 37.9576 36.5773 37.943 36.5856C37.936 36.5896 37.9291 36.5937 37.9219 36.5977C37.9088 36.6052 37.8957 36.6127 37.8826 36.6202C37.875 36.6246 37.8675 36.629 37.8599 36.6334C37.8473 36.6407 37.8346 36.648 37.8221 36.6554C37.8152 36.6595 37.8082 36.6636 37.8012 36.6677C37.7881 36.6753 37.7751 36.683 37.7621 36.6908C37.7551 36.6949 37.7482 36.699 37.7413 36.7032C37.7286 36.7107 37.7159 36.7184 37.7032 36.726C37.6958 36.7306 37.6884 36.7349 37.681 36.7394C37.669 36.7467 37.657 36.7539 37.6451 36.7612C37.6377 36.7657 37.6303 36.7702 37.6229 36.7747C37.6105 36.7824 37.5982 36.7899 37.5858 36.7976C37.5789 36.8018 37.5721 36.806 37.5652 36.8101C37.5528 36.8179 37.5404 36.8256 37.5279 36.8334C37.5211 36.8376 37.5141 36.842 37.5073 36.8464C37.4946 36.8543 37.4818 36.8624 37.4691 36.8704C37.4631 36.8743 37.4572 36.8779 37.4512 36.8818C37.4367 36.8909 37.4224 36.9002 37.408 36.9094C37.4038 36.9121 37.3995 36.9149 37.3954 36.9176C37.3782 36.9287 37.3611 36.9397 37.344 36.9509C37.3427 36.9518 37.3413 36.9527 37.3399 36.9537C37.2829 36.991 37.2267 37.0285 37.1714 37.0663C37.1704 37.067 37.1694 37.0676 37.1686 37.0683C37.1514 37.08 37.1342 37.0919 37.1171 37.1037C37.1142 37.1056 37.1113 37.1076 37.1085 37.1095C37.0934 37.1199 37.0785 37.1303 37.0636 37.1409C37.0594 37.1439 37.0553 37.1467 37.051 37.1497C37.0375 37.1593 37.024 37.1689 37.0104 37.1784C37.0058 37.1817 37.0013 37.185 36.9968 37.1883C36.9836 37.1976 36.9705 37.207 36.9575 37.2165C36.9529 37.2199 36.9482 37.2232 36.9436 37.2266C36.9307 37.2359 36.918 37.2452 36.9053 37.2545C36.9004 37.258 36.8955 37.2617 36.8905 37.2653C36.8782 37.2743 36.8659 37.2835 36.8536 37.2925C36.8486 37.2963 36.8435 37.3 36.8383 37.3038C36.8259 37.3131 36.8136 37.3224 36.8011 37.3317C36.7969 37.3349 36.7926 37.3381 36.7884 37.3413C36.7753 37.3513 36.7622 37.3612 36.749 37.3712C36.7451 37.3742 36.7411 37.3772 36.7371 37.3802C36.724 37.3904 36.7109 37.4005 36.6978 37.4106C36.6943 37.4133 36.6909 37.4159 36.6874 37.4187C36.6729 37.4299 36.6585 37.4412 36.644 37.4526C36.6421 37.4541 36.6401 37.4557 36.6382 37.4572C36.5549 37.5228 36.4738 37.5892 36.3949 37.6563C36.3926 37.6583 36.3901 37.6602 36.3878 37.6623C36.3746 37.6736 36.3613 37.685 36.348 37.6963C36.3452 37.6988 36.3423 37.7014 36.3394 37.7039C36.3273 37.7144 36.3151 37.7249 36.3031 37.7354C36.2988 37.7393 36.2944 37.743 36.2902 37.7468C36.279 37.7566 36.2679 37.7663 36.257 37.7762C36.2532 37.7796 36.2493 37.783 36.2455 37.7864C36.2341 37.7966 36.2229 37.8065 36.2117 37.8167C36.2079 37.8202 36.2039 37.8236 36.2001 37.8272C36.1893 37.837 36.1785 37.8469 36.1677 37.8567C36.1635 37.8607 36.1592 37.8645 36.1549 37.8685C36.1443 37.8782 36.1339 37.8879 36.1235 37.8975C36.1193 37.9014 36.1151 37.9054 36.1108 37.9093C36.1003 37.9192 36.0899 37.929 36.0794 37.9389C36.0756 37.9426 36.0716 37.9461 36.0678 37.9498C36.0567 37.9602 36.0459 37.9707 36.035 37.9811C36.0317 37.9843 36.0282 37.9876 36.025 37.9907C36.0143 38.0009 36.0038 38.0112 35.9933 38.0215C35.9896 38.025 35.9859 38.0287 35.9822 38.0323C35.97 38.0443 35.9578 38.0563 35.9457 38.0682C35.9442 38.0697 35.9428 38.0711 35.9413 38.0726C35.8851 38.1285 35.8304 38.1848 35.7771 38.2416C35.7757 38.2429 35.7745 38.2444 35.7731 38.2458C35.7614 38.2583 35.7498 38.2708 35.7383 38.2833C35.7357 38.2861 35.7331 38.2889 35.7305 38.2917C35.723 38.2998 35.7154 38.308 35.7081 38.3161C35.5936 38.1906 35.4724 38.0671 35.3442 37.9457C35.3299 37.9322 35.3155 37.9186 35.301 37.9051C35.3001 37.9042 35.2991 37.9033 35.2982 37.9024C35.2842 37.8894 35.2703 37.8764 35.2561 37.8634C35.2552 37.8627 35.2544 37.8619 35.2537 37.8612C35.2392 37.848 35.2246 37.8346 35.2099 37.8213C35.2096 37.8212 35.2093 37.8209 35.2092 37.8206C35.1941 37.8069 35.179 37.7934 35.1636 37.7797L35.1635 37.7796C35.1483 37.7661 35.133 37.7525 35.1176 37.739C35.1173 37.7387 35.117 37.7386 35.1167 37.7383C34.9922 37.6291 34.8619 37.5218 34.726 37.4162C34.7256 37.4159 34.7253 37.4157 34.7249 37.4154C34.7085 37.4027 34.692 37.39 34.6754 37.3772C34.6745 37.3766 34.6735 37.3757 34.6724 37.3749C34.6563 37.3626 34.64 37.3502 34.6237 37.3379C34.6226 37.337 34.6217 37.3362 34.6206 37.3354C34.6051 37.3238 34.5897 37.3122 34.5742 37.3007C34.5715 37.2986 34.5688 37.2967 34.566 37.2947C34.5509 37.2834 34.5357 37.2722 34.5204 37.261C34.5185 37.2597 34.5167 37.2583 34.5148 37.2569C34.4986 37.2452 34.4825 37.2334 34.4662 37.2217C34.4649 37.2207 34.4636 37.2197 34.4623 37.2188C34.446 37.207 34.4295 37.1953 34.4131 37.1835C34.4114 37.1824 34.4099 37.1812 34.4083 37.1801C34.3921 37.1687 34.3761 37.1573 34.3599 37.1459C34.3578 37.1445 34.3559 37.143 34.3539 37.1417C34.3362 37.1294 34.3186 37.1169 34.3007 37.1046C34.3005 37.1045 34.3004 37.1045 34.3003 37.1043C34.2087 37.0409 34.1149 36.9783 34.0189 36.9164C34.017 36.9151 34.0151 36.9139 34.0131 36.9127C33.9965 36.9019 33.9797 36.8912 33.9628 36.8804C33.959 36.8779 33.955 36.8755 33.9512 36.873C33.9362 36.8635 33.9211 36.854 33.906 36.8444C33.9012 36.8414 33.8964 36.8384 33.8916 36.8354C33.8775 36.8267 33.8634 36.8178 33.8494 36.809C33.8433 36.8053 33.8375 36.8017 33.8315 36.798C33.8182 36.7898 33.8049 36.7817 33.7917 36.7735C33.7851 36.7695 33.7787 36.7656 33.7721 36.7616C33.7589 36.7535 33.7455 36.7455 33.7321 36.7374C33.7262 36.7338 33.7203 36.7303 33.7144 36.7267C33.7005 36.7184 33.6864 36.7099 33.6724 36.7016C33.6664 36.698 33.6606 36.6945 33.6545 36.6909C33.6406 36.6827 33.6265 36.6744 33.6126 36.6662C33.6065 36.6626 33.6007 36.6592 33.5947 36.6556C33.5803 36.6473 33.5658 36.6388 33.5513 36.6305C33.5458 36.6273 33.5404 36.6241 33.5348 36.6209C33.5196 36.6122 33.5043 36.6034 33.4891 36.5947C33.4839 36.5917 33.4789 36.5888 33.4737 36.5858C33.4571 36.5763 33.4404 36.5669 33.4236 36.5575C33.4199 36.5554 33.4162 36.5534 33.4125 36.5512C33.3924 36.5398 33.3722 36.5286 33.3518 36.5173C33.3514 36.517 33.3509 36.5167 33.3505 36.5165C33.3297 36.505 33.3086 36.4934 33.2877 36.4819C33.2853 36.4805 33.2827 36.4791 33.2802 36.4778C33.2617 36.4676 33.2432 36.4575 33.2244 36.4476C33.2203 36.4454 33.2162 36.4432 33.2121 36.441C33.1957 36.4321 33.1792 36.4234 33.1628 36.4145C33.155 36.4104 33.147 36.4061 33.1392 36.402C33.1267 36.3953 33.114 36.3886 33.1014 36.3819C33.0922 36.3771 33.0831 36.3722 33.0738 36.3674C33.0612 36.3609 33.0486 36.3543 33.036 36.3477C33.0278 36.3435 33.0198 36.3394 33.0116 36.3352C32.9982 36.3283 32.9848 36.3214 32.9714 36.3145C32.9633 36.3104 32.9551 36.3063 32.947 36.3021C32.9333 36.2951 32.9195 36.2881 32.9057 36.2812C32.8978 36.2772 32.8899 36.2731 32.8819 36.2691C32.8684 36.2623 32.855 36.2556 32.8415 36.2489C32.8327 36.2445 32.8241 36.2402 32.8154 36.2359C32.8022 36.2295 32.7892 36.2229 32.7761 36.2165C32.7672 36.2121 32.7582 36.2077 32.7493 36.2034C32.7367 36.1972 32.7242 36.1911 32.7116 36.1851C32.7016 36.1801 32.6915 36.1753 32.6814 36.1704C32.6693 36.1647 32.6573 36.1588 32.6451 36.1531C32.6353 36.1484 32.6256 36.1436 32.6157 36.139C32.6024 36.1326 32.5888 36.1261 32.5753 36.1198C32.5663 36.1156 32.5574 36.1114 32.5483 36.1071C32.5347 36.1007 32.521 36.0943 32.5073 36.0878C32.4983 36.0836 32.4894 36.0795 32.4804 36.0753C32.4581 36.0649 32.4357 36.0545 32.4131 36.0442C29.7463 34.8222 26.2307 34.1492 22.5143 34.1492C22.4746 34.1492 22.435 34.1493 22.3953 34.1494C22.3863 34.1494 22.3772 34.1494 22.3681 34.1496C22.3289 34.1497 22.2898 34.15 22.2506 34.1504C22.2454 34.1504 22.2403 34.1505 22.2352 34.1505C22.2004 34.1508 22.1657 34.1512 22.1309 34.1516C22.1212 34.1518 22.1115 34.1519 22.1019 34.152C22.0632 34.1526 22.0247 34.1531 21.9861 34.1538C21.9799 34.154 21.9736 34.1541 21.9673 34.1542C21.9335 34.1548 21.8996 34.1555 21.8658 34.1561C21.8564 34.1563 21.847 34.1566 21.8375 34.1567C21.7992 34.1575 21.761 34.1585 21.7227 34.1594C21.7152 34.1596 21.7075 34.1598 21.7 34.1601C21.6662 34.1611 21.6325 34.162 21.5987 34.163C21.591 34.1633 21.5834 34.1634 21.5757 34.1637C21.5378 34.1648 21.5001 34.1661 21.4622 34.1674C21.4528 34.1676 21.4434 34.168 21.4339 34.1683C21.3987 34.1695 21.3635 34.1708 21.3284 34.1721C21.3237 34.1723 21.3191 34.1726 21.3146 34.1727C21.2756 34.1742 21.2366 34.1758 21.1978 34.1776C21.1893 34.178 21.1809 34.1784 21.1724 34.1787C21.1341 34.1803 21.0958 34.1821 21.0577 34.184C21.0549 34.1842 21.0521 34.1843 21.0493 34.1844C21.0115 34.1862 20.9736 34.1881 20.9357 34.1902C20.9279 34.1906 20.9201 34.191 20.9124 34.1914C20.873 34.1935 20.8337 34.1957 20.7945 34.1978C20.7909 34.198 20.7875 34.1983 20.784 34.1985C20.7483 34.2006 20.7127 34.2026 20.6772 34.2048C20.6682 34.2054 20.6593 34.2059 20.6503 34.2065C20.6121 34.2088 20.5738 34.2112 20.5358 34.2137C20.5302 34.2141 20.5246 34.2145 20.519 34.2148C20.484 34.2171 20.4492 34.2194 20.4143 34.2219C20.407 34.2225 20.3999 34.2229 20.3927 34.2234C20.3544 34.2261 20.316 34.2289 20.2778 34.2318C20.2711 34.2323 20.2646 34.2327 20.2579 34.2333C20.2222 34.236 20.1866 34.2387 20.1511 34.2415C20.1462 34.2419 20.1411 34.2423 20.1362 34.2427C20.0976 34.2457 20.0591 34.2488 20.0207 34.2521C20.013 34.2528 20.0054 34.2534 19.9977 34.254C19.9623 34.257 19.9269 34.2601 19.8916 34.2632C19.8874 34.2636 19.8831 34.2639 19.8789 34.2643C19.8401 34.2677 19.8012 34.2713 19.7625 34.2748C19.7557 34.2755 19.7489 34.276 19.7422 34.2767C19.6645 34.284 19.587 34.2915 19.5096 34.2993C19.5013 34.3001 19.4931 34.3011 19.4849 34.3019C19.447 34.3057 19.409 34.3097 19.3713 34.3138C19.3674 34.3142 19.3636 34.3146 19.3596 34.315C19.3252 34.3187 19.2906 34.3224 19.2561 34.3262C19.2474 34.3272 19.2386 34.3281 19.2299 34.3291C19.1934 34.3332 19.1569 34.3373 19.1204 34.3415L19.0978 34.3441C19.0647 34.348 19.0318 34.3519 18.9988 34.3559C18.9927 34.3566 18.9867 34.3574 18.9805 34.3581C18.9435 34.3626 18.9066 34.3671 18.8696 34.3717C18.8608 34.3728 18.852 34.3739 18.8431 34.375C18.8111 34.379 18.7791 34.3831 18.7471 34.3872C18.7411 34.388 18.735 34.3887 18.729 34.3895C18.692 34.3943 18.6551 34.3992 18.6182 34.4042C18.6103 34.4052 18.6024 34.4063 18.5944 34.4073C18.5598 34.4119 18.5252 34.4167 18.4908 34.4215C18.4872 34.4221 18.4838 34.4225 18.4803 34.4229C18.4431 34.4281 18.406 34.4333 18.369 34.4386C18.361 34.4397 18.3531 34.4409 18.3452 34.442C18.3079 34.4474 18.2704 34.4528 18.2331 34.4584C18.2327 34.4584 18.2323 34.4586 18.2318 34.4586C18.1957 34.4639 18.1597 34.4694 18.1236 34.475C18.1144 34.4763 18.1051 34.4778 18.0959 34.4792C18.0596 34.4848 18.0233 34.4904 17.9871 34.4962C17.9838 34.4967 17.9806 34.4973 17.9773 34.4978C17.9428 34.5033 17.9085 34.5087 17.8743 34.5143C17.8672 34.5154 17.8602 34.5167 17.8531 34.5178C17.8162 34.5238 17.7793 34.5299 17.7425 34.5361C17.7379 34.5369 17.7332 34.5377 17.7286 34.5384C17.6948 34.5442 17.6612 34.5499 17.6275 34.5556C17.6215 34.5567 17.6154 34.5577 17.6094 34.5588C17.5738 34.5649 17.5383 34.5712 17.5027 34.5775C17.4944 34.579 17.486 34.5805 17.4778 34.582C17.4464 34.5876 17.4148 34.5934 17.3835 34.5991C17.378 34.6001 17.3726 34.601 17.3672 34.6021C17.331 34.6088 17.2948 34.6155 17.2587 34.6222C17.2523 34.6234 17.246 34.6247 17.2395 34.6259C17.1657 34.6399 17.092 34.6541 17.0186 34.6686C17.0118 34.6699 17.0051 34.6713 16.9982 34.6725C16.9255 34.687 16.853 34.7018 16.781 34.7168C16.7739 34.7183 16.7668 34.7197 16.7597 34.7213C16.724 34.7289 16.6883 34.7364 16.6527 34.7439C16.6497 34.7446 16.6469 34.7453 16.6439 34.7458C16.6102 34.7531 16.5767 34.7603 16.5432 34.7676C16.5372 34.7689 16.5311 34.7702 16.525 34.7715C16.4895 34.7793 16.4538 34.7872 16.4184 34.7952C16.4139 34.7961 16.4094 34.7972 16.4049 34.7982C16.371 34.8058 16.3372 34.8135 16.3034 34.8213C16.3 34.8221 16.2965 34.8229 16.293 34.8236C16.2572 34.8318 16.2214 34.8401 16.1857 34.8486C16.1798 34.85 16.1741 34.8514 16.1682 34.8527C16.1362 34.8602 16.1042 34.8679 16.0724 34.8756C16.0681 34.8765 16.0638 34.8776 16.0595 34.8786C16.0245 34.887 15.9897 34.8955 15.9548 34.9041C15.9491 34.9055 15.9433 34.907 15.9376 34.9084C15.8663 34.926 15.7954 34.9438 15.7247 34.9621C15.7192 34.9635 15.7136 34.965 15.7082 34.9663C15.6727 34.9755 15.6375 34.9847 15.6023 34.994C15.6018 34.9941 15.6012 34.9942 15.6007 34.9944C15.566 35.0035 15.5312 35.0127 15.4966 35.0221C15.4915 35.0235 15.4864 35.0249 15.4812 35.0262C15.4462 35.0357 15.4113 35.0451 15.3765 35.0547C15.3743 35.0553 15.372 35.0559 15.3698 35.0566C15.3364 35.0657 15.3032 35.075 15.27 35.0843C15.2657 35.0856 15.2614 35.0868 15.2571 35.0879C15.2224 35.0977 15.1877 35.1074 15.1531 35.1174C15.1498 35.1184 15.1464 35.1193 15.1431 35.1203C15.1096 35.1299 15.0762 35.1396 15.0429 35.1494C15.0406 35.1501 15.0382 35.1508 15.0358 35.1515C15.0006 35.1618 14.9655 35.1721 14.9304 35.1826C14.9275 35.1834 14.9246 35.1844 14.9216 35.1852C14.8513 35.2063 14.7813 35.2276 14.7117 35.2493C14.7081 35.2504 14.7042 35.2517 14.7005 35.2528C14.6661 35.2636 14.6316 35.2744 14.5973 35.2853V28.7333C14.5973 26.2662 13.2958 24.0011 11.2004 22.8215C11.186 22.8134 11.1717 22.8055 11.1573 22.7974C11.1504 22.7936 11.1434 22.7898 11.1364 22.7859C11.1293 22.7821 11.1223 22.7781 11.1152 22.7743C11.107 22.7698 11.0988 22.7654 11.0906 22.761C11.0845 22.7578 11.0782 22.7543 11.072 22.7511C11.0631 22.7464 11.0544 22.7416 11.0455 22.737C11.0403 22.7343 11.0352 22.7315 11.03 22.7289C11.0205 22.7239 11.0109 22.7188 11.0012 22.7139C10.9968 22.7116 10.9925 22.7094 10.9881 22.707C10.978 22.7018 10.9678 22.6967 10.9577 22.6915C10.9557 22.6904 10.9536 22.6894 10.9514 22.6883C10.9263 22.6755 10.901 22.6629 10.8756 22.6504C10.8753 22.6503 10.875 22.6502 10.8747 22.65C10.8645 22.645 10.8541 22.6399 10.8437 22.6349C10.8392 22.6327 10.8347 22.6305 10.8302 22.6283C10.8202 22.6235 10.8103 22.6187 10.8004 22.6141C10.7956 22.6118 10.7909 22.6096 10.7861 22.6072C10.7764 22.6026 10.7667 22.5981 10.757 22.5936C10.7518 22.5911 10.7466 22.5886 10.7413 22.5863C10.7317 22.5818 10.722 22.5774 10.7125 22.5729C10.7077 22.5707 10.703 22.5685 10.6982 22.5665C10.6878 22.5617 10.6776 22.5571 10.6672 22.5524C10.6661 22.5519 10.6649 22.5515 10.6638 22.5509C10.6408 22.5405 10.6177 22.5304 10.5945 22.5203C10.5902 22.5185 10.586 22.5166 10.5817 22.5148C10.5735 22.5113 10.5652 22.5077 10.557 22.5042C10.5496 22.501 10.5424 22.4979 10.535 22.4947C10.5277 22.4917 10.5205 22.4886 10.5131 22.4856C10.5046 22.482 10.4962 22.4784 10.4877 22.4749C10.4809 22.472 10.4742 22.4693 10.4673 22.4664C10.4584 22.4627 10.4495 22.4592 10.4408 22.4556C10.4344 22.453 10.4278 22.4504 10.4214 22.4478C10.4095 22.443 10.3976 22.4383 10.3856 22.4335C10.3827 22.4324 10.3798 22.4311 10.3769 22.4301C10.3279 22.4106 10.2786 22.3919 10.2292 22.3737C10.2289 22.3736 10.2286 22.3734 10.2283 22.3734C10.1039 22.3276 9.97827 22.2857 9.8514 22.2474C12.0914 19.4263 15.5139 17.739 19.1913 17.739ZM56.8191 38.1801V40.8804H37.23V40.8793C37.2511 40.8324 37.2742 40.7855 37.2992 40.7386C37.2992 40.7385 37.2993 40.7383 37.2995 40.7382C37.3078 40.7226 37.3164 40.7072 37.3252 40.6916C37.3253 40.6914 37.3253 40.6913 37.3254 40.6912C37.923 39.6356 39.5557 38.6011 41.8687 37.8776L41.8694 37.8774C42.0403 37.8239 42.215 37.7721 42.3932 37.7222C42.3939 37.722 42.3946 37.7218 42.3952 37.7216C42.4121 37.717 42.4289 37.7122 42.4458 37.7076C42.4475 37.7071 42.4491 37.7066 42.4507 37.7062C42.5748 37.6719 42.7005 37.6384 42.8278 37.6058C42.8288 37.6056 42.8297 37.6053 42.8307 37.6051C42.8478 37.6008 42.8649 37.5964 42.8821 37.5922C42.8839 37.5917 42.8855 37.5912 42.8873 37.5908C42.9036 37.5867 42.92 37.5826 42.9362 37.5785C42.9392 37.5777 42.9424 37.577 42.9454 37.5762C42.9614 37.5722 42.9775 37.5682 42.9935 37.5643C42.996 37.5637 42.9984 37.563 43.0009 37.5625C43.0367 37.5536 43.0728 37.545 43.1089 37.5362C43.1091 37.5362 43.1093 37.5361 43.1095 37.5361C43.2001 37.5144 43.2916 37.493 43.3837 37.4721C43.3884 37.471 43.393 37.4701 43.3975 37.469C43.4116 37.4658 43.4256 37.4627 43.4396 37.4595C43.4454 37.4582 43.4513 37.4569 43.457 37.4557C43.4716 37.4524 43.4864 37.4492 43.501 37.446C43.5058 37.4449 43.5106 37.444 43.5152 37.4429C43.5308 37.4394 43.5466 37.436 43.5621 37.4326C43.5654 37.4319 43.5686 37.4312 43.5718 37.4306C43.5885 37.427 43.6053 37.4233 43.6222 37.4198C43.6245 37.4192 43.6268 37.4188 43.6291 37.4183C43.7419 37.3942 43.8558 37.3708 43.9708 37.3481C43.9735 37.3476 43.9763 37.347 43.9791 37.3465C43.9958 37.3432 44.0126 37.3399 44.0294 37.3366C44.0331 37.336 44.0367 37.3353 44.0404 37.3344C44.0562 37.3313 44.0721 37.3283 44.0881 37.3253C44.0933 37.3243 44.0986 37.3232 44.1038 37.3223C44.1201 37.3191 44.1364 37.3161 44.1526 37.313C44.1552 37.3124 44.1578 37.312 44.1604 37.3115C44.1779 37.3082 44.1954 37.3049 44.2129 37.3016C44.2159 37.3011 44.2189 37.3005 44.2219 37.3C44.3161 37.2825 44.411 37.2655 44.5066 37.249C44.5115 37.2482 44.5164 37.2474 44.5212 37.2465C44.5349 37.2442 44.5487 37.2419 44.5624 37.2396C44.5707 37.2382 44.5791 37.2367 44.5873 37.2353C44.6005 37.2331 44.6139 37.2308 44.6273 37.2286C44.6347 37.2274 44.6421 37.2262 44.6496 37.2249C44.6637 37.2226 44.6779 37.2203 44.692 37.218C44.6992 37.2167 44.7065 37.2155 44.7137 37.2144C44.7282 37.2121 44.7428 37.2096 44.7573 37.2073C44.7632 37.2063 44.769 37.2054 44.7747 37.2046C44.7904 37.2021 44.806 37.1995 44.8217 37.197C44.828 37.1961 44.8342 37.1951 44.8405 37.194C44.8548 37.1917 44.8692 37.1895 44.8835 37.1873C44.8941 37.1857 44.9046 37.1841 44.9151 37.1824C44.9435 37.178 44.972 37.1737 45.0004 37.1694C45.0041 37.1689 45.0078 37.1683 45.0116 37.1678C45.0258 37.1656 45.0401 37.1635 45.0541 37.1615C45.0617 37.1604 45.0691 37.1593 45.0766 37.1582C45.09 37.1562 45.1035 37.1543 45.117 37.1523C45.1254 37.1511 45.1339 37.1499 45.1422 37.1486C45.1576 37.1465 45.1732 37.1441 45.1887 37.1419C45.1941 37.1411 45.1996 37.1403 45.2052 37.1396C45.2197 37.1376 45.2343 37.1355 45.2488 37.1335C45.2583 37.1321 45.2676 37.1309 45.277 37.1295C45.2889 37.1279 45.3008 37.1262 45.3128 37.1246C45.3225 37.1232 45.3321 37.122 45.3418 37.1206C45.3548 37.1188 45.3679 37.1171 45.381 37.1153C45.3906 37.1141 45.4003 37.1127 45.4099 37.1115C45.4222 37.1098 45.4346 37.1082 45.4469 37.1065C45.4573 37.1052 45.4677 37.1038 45.4781 37.1024C45.49 37.1009 45.5018 37.0994 45.5137 37.0978C45.5247 37.0964 45.5358 37.0949 45.547 37.0935C45.5655 37.0912 45.5841 37.0888 45.6027 37.0864C45.6176 37.0845 45.6323 37.0827 45.6472 37.0808C45.6575 37.0796 45.6679 37.0784 45.6781 37.077C45.6898 37.0756 45.7014 37.0741 45.713 37.0728C45.7256 37.0713 45.7383 37.0698 45.7509 37.0683C45.761 37.067 45.7711 37.0658 45.7812 37.0647C45.7941 37.0632 45.8068 37.0617 45.8196 37.0602C45.8292 37.0591 45.8386 37.058 45.8482 37.0569C45.8613 37.0554 45.8746 37.0539 45.8879 37.0524C45.8977 37.0513 45.9077 37.0502 45.9175 37.049C45.9301 37.0476 45.9427 37.0461 45.9553 37.0447C45.9654 37.0436 45.9756 37.0426 45.9858 37.0413C45.9983 37.04 46.011 37.0386 46.0238 37.0372C46.034 37.0361 46.0444 37.035 46.0547 37.0339C46.0675 37.0326 46.0804 37.0312 46.0932 37.0298C46.1024 37.0289 46.1115 37.0279 46.1207 37.027C46.1344 37.0256 46.148 37.0241 46.1617 37.0227C46.2078 37.0179 46.2539 37.0134 46.3001 37.0089C46.3062 37.0084 46.3124 37.0077 46.3185 37.0071C46.3344 37.0056 46.3502 37.0041 46.3662 37.0026C46.378 37.0015 46.3898 37.0004 46.4015 36.9993C46.4131 36.9983 46.4246 36.9972 46.4362 36.9962C46.449 36.995 46.4617 36.9939 46.4744 36.9928C46.4845 36.9918 46.4946 36.991 46.5047 36.9901C46.5174 36.989 46.53 36.9877 46.5427 36.9866C46.5538 36.9857 46.565 36.9847 46.5761 36.9838C46.5885 36.9827 46.6008 36.9816 46.6133 36.9806C46.6245 36.9797 46.6357 36.9787 46.6471 36.9777C46.6585 36.9768 46.67 36.9758 46.6815 36.9749C46.6941 36.9738 46.7068 36.9728 46.7194 36.9719C46.7313 36.9709 46.7433 36.97 46.7552 36.969C46.7642 36.9683 46.7733 36.9676 46.7823 36.9668C46.7965 36.9657 46.8106 36.9646 46.8248 36.9635C46.8326 36.963 46.8405 36.9623 46.8483 36.9618C46.8781 36.9594 46.9079 36.9572 46.9379 36.9552C46.9459 36.9546 46.9541 36.954 46.9622 36.9534C46.975 36.9525 46.9879 36.9516 47.0006 36.9507C47.012 36.9499 47.0233 36.949 47.0347 36.9484C47.046 36.9475 47.0574 36.9468 47.0687 36.946C47.0818 36.9452 47.0951 36.9443 47.1083 36.9434C47.1186 36.9427 47.129 36.9421 47.1392 36.9414C47.1532 36.9404 47.167 36.9396 47.1809 36.9386C47.1908 36.9381 47.2008 36.9374 47.2106 36.9369C47.2251 36.9359 47.2395 36.9351 47.254 36.9341C47.2638 36.9336 47.2738 36.9329 47.2836 36.9324C47.2984 36.9314 47.3133 36.9306 47.3281 36.9298C47.3372 36.9292 47.3464 36.9287 47.3555 36.9281C47.3704 36.9273 47.3853 36.9265 47.4002 36.9257C47.4104 36.9251 47.4203 36.9246 47.4305 36.924C47.4462 36.9232 47.462 36.9224 47.4778 36.9216C47.4857 36.9211 47.4938 36.9207 47.5017 36.9203C47.5253 36.9191 47.5491 36.918 47.5729 36.9168C47.5811 36.9164 47.5892 36.916 47.5974 36.9155C47.6143 36.9147 47.6312 36.9139 47.6481 36.9132C47.6558 36.9128 47.6634 36.9125 47.6709 36.9121C47.6876 36.9114 47.7042 36.9106 47.7208 36.9099C47.7301 36.9095 47.7393 36.9091 47.7486 36.9087C47.7635 36.908 47.7785 36.9075 47.7934 36.9068C47.8042 36.9064 47.815 36.906 47.8258 36.9056C47.8395 36.905 47.8531 36.9045 47.8667 36.9041C47.877 36.9036 47.8872 36.9032 47.8976 36.903C47.9139 36.9024 47.9302 36.9017 47.9464 36.9012C47.9541 36.9009 47.9617 36.9006 47.9694 36.9004C47.9868 36.8998 48.0043 36.8991 48.0216 36.8987C48.0296 36.8984 48.0374 36.8982 48.0453 36.8979C48.0655 36.8974 48.0858 36.8967 48.106 36.8961C48.11 36.896 48.1139 36.8959 48.1179 36.8957C48.1366 36.8952 48.1553 36.8946 48.1741 36.8942C48.1877 36.8938 48.2014 36.8935 48.2151 36.8931C48.2327 36.8927 48.2505 36.8923 48.2683 36.8919C48.2789 36.8916 48.2896 36.8913 48.3003 36.8912C48.3138 36.8909 48.3272 36.8907 48.3407 36.8904C48.3518 36.8901 48.3629 36.89 48.374 36.8897C48.3893 36.8894 48.4046 36.8892 48.4199 36.8889C48.4285 36.8887 48.4371 36.8886 48.4459 36.8885C48.4613 36.8882 48.4768 36.8879 48.4922 36.8878C48.503 36.8877 48.5137 36.8875 48.5245 36.8874C48.5398 36.8872 48.5552 36.887 48.5706 36.8868C48.58 36.8867 48.5894 36.8866 48.5989 36.8866C48.6131 36.8864 48.6272 36.8863 48.6412 36.8861C48.6533 36.886 48.6653 36.8859 48.6775 36.8859C48.6905 36.8857 48.7034 36.8857 48.7164 36.8856C48.7283 36.8855 48.7402 36.8855 48.7521 36.8853C48.7692 36.8852 48.7864 36.8852 48.8035 36.8852C48.8106 36.8852 48.8177 36.8852 48.8249 36.885C48.8503 36.885 48.8758 36.8849 48.9014 36.8849C48.9431 36.8849 48.9848 36.8851 49.0265 36.8852C49.0329 36.8852 49.0394 36.8852 49.0458 36.8853C49.0854 36.8855 49.1251 36.8859 49.1647 36.8861C49.1723 36.8863 49.1799 36.8863 49.1874 36.8864C49.2276 36.8868 49.2678 36.8874 49.308 36.8879C49.3128 36.8879 49.3176 36.8881 49.3224 36.8881C49.3641 36.8887 49.4058 36.8894 49.4475 36.8902C49.4513 36.8902 49.455 36.8904 49.4588 36.8905C49.5011 36.8913 49.5432 36.8923 49.5851 36.8933H49.5882C49.6296 36.8943 49.671 36.8954 49.7123 36.8965C49.7186 36.8967 49.725 36.8969 49.7313 36.8971C49.7711 36.8983 49.8109 36.8995 49.8505 36.9009C49.8569 36.9012 49.8634 36.9013 49.8698 36.9016C49.9104 36.903 49.951 36.9045 49.9915 36.9061C49.9953 36.9062 49.9991 36.9064 50.003 36.9065C50.0894 36.9099 50.1754 36.9138 50.2614 36.9179C50.2637 36.918 50.2661 36.9181 50.2685 36.9183C50.3104 36.9203 50.3523 36.9225 50.3941 36.9247C50.3983 36.9248 50.4025 36.9251 50.4067 36.9254C50.4488 36.9277 50.4908 36.93 50.5327 36.9325C50.5347 36.9326 50.5367 36.9328 50.5386 36.9329C50.671 36.9407 50.8028 36.9494 50.934 36.9592C50.9352 36.9593 50.9363 36.9593 50.9376 36.9594C50.9813 36.9627 51.0249 36.966 51.0685 36.9694C51.069 36.9694 51.0694 36.9694 51.0698 36.9695C51.2464 36.9835 51.422 36.9992 51.5964 37.0164C51.5967 37.0164 51.5968 37.0164 51.5971 37.0166C53.5199 37.2077 55.3038 37.6036 56.8191 38.1801ZM34.1851 40.8786H14.5962V38.1792C16.1112 37.603 17.8948 37.2072 19.8172 37.0159C19.8181 37.0158 19.819 37.0158 19.8198 37.0156C19.9936 36.9984 20.1686 36.9828 20.3447 36.9689C20.3457 36.9687 20.3465 36.9687 20.3474 36.9686C20.3905 36.9652 20.4337 36.9619 20.477 36.9586C20.4788 36.9585 20.4806 36.9583 20.4824 36.9582C20.6131 36.9486 20.7442 36.9399 20.876 36.9321C20.8783 36.9319 20.8808 36.9318 20.8831 36.9317C20.9248 36.9292 20.9665 36.9269 21.0082 36.9246C21.0127 36.9243 21.0171 36.924 21.0216 36.9239C21.0632 36.9217 21.1049 36.9195 21.1466 36.9175C21.1491 36.9173 21.1517 36.9172 21.1545 36.917C21.2401 36.9128 21.3259 36.9091 21.4121 36.9057C21.416 36.9056 21.4201 36.9054 21.4241 36.9051C21.4644 36.9035 21.5049 36.9021 21.5454 36.9006C21.5519 36.9004 21.5585 36.9002 21.565 36.9C21.6046 36.8986 21.6442 36.8974 21.6839 36.8961C21.6904 36.896 21.697 36.8957 21.7034 36.8956C21.7446 36.8943 21.7858 36.8933 21.8271 36.8923C21.8282 36.8923 21.8295 36.8923 21.8306 36.8923C21.8725 36.8912 21.9145 36.8904 21.9565 36.8896C21.9603 36.8894 21.9641 36.8894 21.968 36.8893C22.0097 36.8885 22.0512 36.8878 22.0929 36.8871C22.0977 36.887 22.1025 36.887 22.1074 36.8868C22.1476 36.8863 22.1877 36.8857 22.2279 36.8853C22.2354 36.8852 22.243 36.8852 22.2506 36.885C22.2902 36.8846 22.3299 36.8844 22.3695 36.8842C22.3759 36.8842 22.3824 36.8842 22.3888 36.8841C22.4305 36.884 22.4722 36.8838 22.5139 36.8838C22.5394 36.8838 22.565 36.8838 22.5904 36.884C22.5975 36.884 22.6047 36.884 22.6118 36.8841C22.6289 36.8841 22.6461 36.8842 22.6632 36.8842C22.6751 36.8844 22.687 36.8844 22.6989 36.8845C22.7118 36.8846 22.7248 36.8846 22.7377 36.8848C22.7497 36.8849 22.7619 36.885 22.7739 36.885C22.7881 36.8852 22.8022 36.8853 22.8163 36.8855C22.8257 36.8856 22.8352 36.8857 22.8446 36.8857C22.8599 36.8859 22.8754 36.8861 22.8907 36.8863C22.9013 36.8864 22.9121 36.8866 22.9229 36.8867C22.9384 36.887 22.954 36.8871 22.9694 36.8874C22.978 36.8875 22.9865 36.8877 22.9951 36.8878C23.0104 36.8881 23.0258 36.8883 23.0411 36.8886C23.0521 36.8887 23.0633 36.889 23.0744 36.8893C23.0878 36.8896 23.1012 36.8898 23.1146 36.8901C23.1253 36.8904 23.1361 36.8905 23.1467 36.8908C23.1645 36.8912 23.1822 36.8916 23.1999 36.892C23.2137 36.8924 23.2274 36.8927 23.2412 36.8931C23.2598 36.8937 23.2785 36.8941 23.2971 36.8946C23.3012 36.8948 23.3055 36.8949 23.3096 36.895C23.3297 36.8956 23.3498 36.8963 23.3697 36.8968C23.3777 36.8971 23.3855 36.8974 23.3934 36.8976C23.4107 36.8982 23.4283 36.8987 23.4456 36.8993C23.4533 36.8995 23.4609 36.8998 23.4684 36.9001C23.4847 36.9006 23.501 36.9012 23.5173 36.9019C23.5275 36.9023 23.5378 36.9026 23.548 36.903C23.5617 36.9035 23.5755 36.9041 23.5892 36.9045C23.5998 36.9049 23.6105 36.9053 23.6212 36.9057C23.6362 36.9064 23.6511 36.9069 23.6661 36.9076C23.6754 36.908 23.6847 36.9084 23.694 36.9088C23.7104 36.9095 23.7267 36.9102 23.7431 36.911C23.751 36.9114 23.759 36.9117 23.7668 36.9121C23.7833 36.9128 23.7999 36.9136 23.8163 36.9144C23.8249 36.9149 23.8333 36.9153 23.842 36.9157C23.8656 36.9168 23.8893 36.918 23.9131 36.9192C23.9211 36.9196 23.9291 36.9201 23.9371 36.9205C23.9528 36.9213 23.9686 36.9221 23.9843 36.9229C23.9943 36.9235 24.0041 36.924 24.0141 36.9246C24.0291 36.9254 24.0443 36.9262 24.0593 36.927C24.0682 36.9276 24.0771 36.928 24.086 36.9285C24.101 36.9293 24.1162 36.9303 24.1313 36.9311C24.1411 36.9317 24.1509 36.9324 24.1607 36.9329C24.175 36.9337 24.1894 36.9347 24.2037 36.9355C24.2138 36.9362 24.224 36.9367 24.2339 36.9374C24.2477 36.9382 24.2614 36.9392 24.2752 36.94C24.2855 36.9407 24.2959 36.9414 24.3063 36.9421C24.3195 36.9429 24.3326 36.9438 24.3458 36.9447C24.3571 36.9455 24.3685 36.9462 24.3798 36.947C24.3912 36.9478 24.4025 36.9486 24.4139 36.9493C24.4267 36.9503 24.4396 36.9511 24.4523 36.952C24.4601 36.9526 24.468 36.9531 24.4758 36.9537C24.5067 36.956 24.5376 36.9582 24.5683 36.9605C24.5755 36.9611 24.5826 36.9616 24.5897 36.9622C24.6043 36.9633 24.6189 36.9645 24.6337 36.9656C24.6422 36.9663 24.6505 36.9669 24.659 36.9676C24.6712 36.9686 24.6833 36.9695 24.6955 36.9706C24.7079 36.9716 24.7205 36.9727 24.733 36.9736C24.7443 36.9746 24.7557 36.9756 24.767 36.9765C24.7785 36.9775 24.79 36.9784 24.8013 36.9794C24.8135 36.9805 24.8255 36.9814 24.8377 36.9825C24.8489 36.9835 24.8602 36.9844 24.8715 36.9854C24.8843 36.9865 24.897 36.9877 24.9097 36.9888C24.9197 36.9898 24.9298 36.9906 24.9398 36.9916C24.9525 36.9927 24.9651 36.9939 24.9778 36.995C24.9896 36.9961 25.0013 36.9972 25.0131 36.9983C25.0247 36.9993 25.0363 37.0004 25.048 37.0015C25.0634 37.003 25.0787 37.0045 25.0942 37.0059C25.1009 37.0066 25.1076 37.0071 25.1144 37.0078C25.1605 37.0123 25.2066 37.0169 25.2525 37.0216C25.2666 37.0231 25.2805 37.0245 25.2946 37.026C25.3033 37.027 25.312 37.0278 25.3207 37.0287C25.3337 37.0301 25.3467 37.0315 25.3597 37.0328C25.3701 37.0339 25.3806 37.035 25.391 37.0363C25.4033 37.0376 25.4156 37.039 25.4279 37.0404C25.4383 37.0415 25.4487 37.0427 25.4591 37.0438C25.4718 37.0451 25.4846 37.0467 25.4974 37.048C25.5069 37.0491 25.5164 37.0502 25.5259 37.0513C25.5393 37.0528 25.5527 37.0543 25.566 37.0559C25.5757 37.057 25.5854 37.0581 25.595 37.0594C25.6077 37.0609 25.6203 37.0622 25.633 37.0639C25.6431 37.0651 25.6532 37.0663 25.6633 37.0674C25.6759 37.0689 25.6886 37.0704 25.7012 37.0719C25.7128 37.0733 25.7244 37.0748 25.7361 37.0762C25.7463 37.0774 25.7567 37.0786 25.767 37.08C25.7819 37.0818 25.7968 37.0837 25.8115 37.0856C25.8301 37.0879 25.8486 37.0903 25.8672 37.0927C25.8782 37.0941 25.8895 37.0956 25.9005 37.097C25.9124 37.0985 25.9242 37.1 25.9361 37.1016C25.9465 37.103 25.9569 37.1043 25.9673 37.1057C25.9796 37.1074 25.992 37.109 26.0043 37.1106C26.0139 37.1119 26.0234 37.1132 26.033 37.1145C26.0464 37.1162 26.0597 37.118 26.0731 37.1199C26.0822 37.1212 26.0915 37.1224 26.1007 37.1238C26.1129 37.1254 26.1252 37.1272 26.1373 37.1288C26.1466 37.1301 26.1561 37.1314 26.1654 37.1328C26.18 37.1348 26.1945 37.1369 26.2091 37.1389C26.2146 37.1398 26.2199 37.1404 26.2254 37.1413C26.2411 37.1435 26.2568 37.1458 26.2725 37.148C26.2803 37.1491 26.288 37.1503 26.2958 37.1514C26.3097 37.1534 26.3237 37.1555 26.3376 37.1575C26.3451 37.1586 26.3525 37.1597 26.36 37.1608C26.3743 37.1629 26.3885 37.1651 26.4026 37.1671C26.4097 37.1682 26.4169 37.1693 26.424 37.1704C26.4482 37.1741 26.4724 37.1778 26.4965 37.1815C26.5078 37.1832 26.5192 37.185 26.5305 37.1867C26.5457 37.189 26.5607 37.1914 26.5759 37.1938C26.5813 37.1946 26.5865 37.1954 26.5918 37.1962C26.6079 37.1988 26.6241 37.2014 26.6402 37.204C26.6457 37.2048 26.6513 37.2058 26.6567 37.2066C26.6712 37.2089 26.6856 37.2113 26.7001 37.2136C26.7076 37.2148 26.715 37.216 26.7225 37.2173C26.7366 37.2196 26.7507 37.2219 26.7646 37.2243C26.772 37.2255 26.7794 37.2267 26.7869 37.2279C26.8003 37.2301 26.8135 37.2325 26.8268 37.2346C26.8351 37.236 26.8435 37.2375 26.8518 37.2389C26.8655 37.2412 26.8792 37.2435 26.8928 37.2459C26.898 37.2468 26.9034 37.2476 26.9086 37.2486C27.0043 37.2651 27.0993 37.2821 27.1935 37.2996C27.1959 37.3 27.1984 37.3005 27.2007 37.301C27.2185 37.3042 27.2361 37.3075 27.2539 37.3109C27.2565 37.3115 27.259 37.3119 27.2616 37.3123C27.2782 37.3154 27.2948 37.3186 27.3115 37.3217C27.3161 37.3225 27.3208 37.3235 27.3253 37.3243C27.3416 37.3275 27.3578 37.3306 27.374 37.3338C27.3775 37.3344 27.3811 37.3351 27.3846 37.3358C27.4017 37.3391 27.4188 37.3425 27.4359 37.3458C27.4378 37.3462 27.4396 37.3465 27.4415 37.3469C27.5569 37.3696 27.6712 37.3931 27.7844 37.4173C27.787 37.4178 27.7896 37.4184 27.7922 37.4189C27.8094 37.4226 27.8266 37.4263 27.8437 37.43C27.846 37.4306 27.8485 37.4311 27.8508 37.4315C27.8668 37.4351 27.883 37.4385 27.899 37.442C27.9036 37.4431 27.9084 37.4441 27.913 37.4452C27.9277 37.4483 27.9422 37.4516 27.9568 37.4549C27.9631 37.4563 27.9692 37.4576 27.9755 37.459C27.989 37.462 28.0024 37.465 28.0158 37.468C28.021 37.4693 28.0262 37.4703 28.0316 37.4716C28.1232 37.4922 28.214 37.5134 28.3041 37.5351C28.3046 37.5353 28.305 37.5354 28.3056 37.5356C28.3414 37.5442 28.3771 37.5529 28.4126 37.5617C28.4156 37.5624 28.4185 37.5632 28.4215 37.5639C28.4369 37.5677 28.4523 37.5715 28.4676 37.5752C28.4715 37.5762 28.4754 37.5771 28.4793 37.5782C28.4953 37.5823 28.5115 37.5863 28.5274 37.5902C28.5288 37.5905 28.5302 37.5909 28.5316 37.5913C28.5489 37.5957 28.5664 37.6001 28.5838 37.6046C28.5847 37.6049 28.5857 37.6051 28.5866 37.6053C28.7135 37.6377 28.8388 37.671 28.9622 37.7052C28.9648 37.7059 28.9674 37.7066 28.97 37.7074C28.9861 37.7119 29.0024 37.7164 29.0185 37.721C29.0198 37.7214 29.021 37.7216 29.0222 37.722C29.1996 37.7717 29.3732 37.8232 29.5433 37.8764L29.5481 37.8779C30.7119 38.2421 31.7036 38.6851 32.4775 39.1699C32.4779 39.1702 32.4783 39.1703 32.4788 39.1706C32.5806 39.2344 32.6788 39.299 32.773 39.3642C32.7737 39.3647 32.7743 39.3651 32.775 39.3657C32.7851 39.3727 32.7953 39.3796 32.8052 39.3867C32.8055 39.3869 32.8057 39.387 32.8058 39.3871C32.8886 39.4451 32.9683 39.5036 33.045 39.5626C33.0459 39.5631 33.0466 39.5636 33.0474 39.5643C33.0563 39.5712 33.0651 39.578 33.074 39.585C33.0749 39.5857 33.0757 39.5863 33.0766 39.5869C33.0852 39.5936 33.0939 39.6003 33.1023 39.607C33.1037 39.6081 33.1049 39.609 33.1063 39.6101C33.1148 39.6168 33.1232 39.6235 33.1316 39.6302C33.1323 39.6308 33.133 39.6313 33.1338 39.6319C33.1425 39.639 33.1514 39.646 33.1602 39.6531C33.1603 39.6531 33.1603 39.6532 33.1603 39.6532C33.2051 39.6894 33.2488 39.7259 33.2913 39.7624C33.2931 39.7639 33.2948 39.7654 33.2966 39.7671C33.3037 39.7732 33.3107 39.7794 33.3178 39.7855C33.3194 39.787 33.3212 39.7885 33.3229 39.7901C33.3297 39.7961 33.3365 39.8021 33.3434 39.8081C33.3458 39.8103 33.3482 39.8123 33.3506 39.8145C33.3569 39.8201 33.3633 39.8257 33.3696 39.8315C33.3718 39.8335 33.374 39.8354 33.3763 39.8375C33.3829 39.8434 33.3893 39.8493 33.3959 39.8551C33.3979 39.857 33.4 39.859 33.402 39.8607C33.4087 39.8669 33.4154 39.8729 33.422 39.8791C33.4228 39.8797 33.4235 39.8804 33.4243 39.8812C33.4555 39.9101 33.486 39.9389 33.5156 39.9679C33.5169 39.969 33.518 39.9702 33.5192 39.9713C33.5253 39.9774 33.5315 39.9834 33.5375 39.9894C33.5396 39.9914 33.5416 39.9935 33.5437 39.9955C33.5494 40.0011 33.555 40.0069 33.5606 40.0125C33.5629 40.0148 33.5653 40.0171 33.5674 40.0193C33.5729 40.0249 33.5785 40.0305 33.584 40.036C33.5865 40.0385 33.5889 40.0409 33.5914 40.0435C33.5966 40.0489 33.6018 40.0542 33.607 40.0595C33.6096 40.0621 33.612 40.0649 33.6146 40.0675C33.6198 40.0728 33.6249 40.0783 33.6301 40.0836C33.6324 40.0862 33.6348 40.0886 33.6372 40.0911C33.6424 40.0966 33.6477 40.1022 33.6529 40.1078C33.6547 40.1097 33.6565 40.1116 33.6582 40.1135C33.6638 40.1195 33.6693 40.1256 33.6749 40.1316L33.675 40.1317C33.6864 40.1442 33.6976 40.1565 33.7087 40.1688C33.7117 40.172 33.7146 40.1753 33.7176 40.1787C33.7219 40.1837 33.7263 40.1887 33.7307 40.1936C33.7333 40.1967 33.736 40.1997 33.7386 40.2027C33.743 40.2077 33.7474 40.2128 33.7517 40.2178C33.7545 40.221 33.7571 40.2241 33.7598 40.2271C33.7639 40.2319 33.768 40.2367 33.772 40.2415C33.7749 40.2449 33.7779 40.2485 33.7807 40.2519C33.7846 40.2564 33.7882 40.2609 33.7921 40.2654C33.7952 40.2692 33.7985 40.2731 33.8016 40.2769C33.8051 40.281 33.8085 40.2852 33.8119 40.2893C33.8155 40.2937 33.819 40.2981 33.8224 40.3023C33.8256 40.3062 33.8287 40.3101 33.8319 40.314C33.8354 40.3185 33.8391 40.323 33.8427 40.3275C33.8455 40.331 33.8484 40.3347 33.8513 40.3383C33.855 40.3429 33.8585 40.3476 33.8622 40.3522C33.8667 40.358 33.8712 40.3639 33.8756 40.3696C33.8801 40.3755 33.8845 40.3812 33.889 40.3871C33.8919 40.3909 33.8948 40.3948 33.8975 40.3984C33.9008 40.4028 33.904 40.4072 33.9073 40.4116C33.9102 40.4155 33.9131 40.4194 33.9159 40.4233C33.9192 40.4278 33.9225 40.4322 33.9258 40.4367C33.9284 40.4403 33.931 40.4438 33.9336 40.4474C33.9369 40.452 33.9403 40.4567 33.9436 40.4613C33.9464 40.4653 33.9492 40.4693 33.9519 40.4732C33.9549 40.4775 33.9579 40.4817 33.9608 40.486C33.9634 40.4898 33.9661 40.4936 33.9687 40.4974C33.972 40.5022 33.9753 40.5069 33.9784 40.5117C33.9807 40.5151 33.9831 40.5185 33.9854 40.522C33.9888 40.5272 33.9922 40.5323 33.9957 40.5375C33.9977 40.5406 33.9998 40.5438 34.0019 40.5469C34.0054 40.5521 34.0088 40.5575 34.0122 40.5626C34.0142 40.5658 34.0163 40.5689 34.0183 40.5721C34.0223 40.5782 34.0263 40.5845 34.0301 40.5907C34.0313 40.5927 34.0327 40.5948 34.0339 40.5968C34.0393 40.6053 34.0445 40.6136 34.0495 40.6221C34.0501 40.6229 34.0506 40.6239 34.051 40.6247C34.0555 40.6321 34.06 40.6396 34.0644 40.647C34.0658 40.6493 34.0672 40.6515 34.0684 40.6538C34.0719 40.6599 34.0755 40.666 34.0791 40.672C34.0804 40.6745 34.0819 40.6769 34.0833 40.6795C34.0867 40.6856 34.0903 40.6917 34.0937 40.6977C34.095 40.7002 34.0964 40.7026 34.0978 40.7051C34.1011 40.7109 34.1042 40.7167 34.1073 40.7225C34.1089 40.7253 34.1105 40.7282 34.112 40.7309C34.1151 40.7367 34.1182 40.7424 34.1212 40.7482C34.1225 40.7506 34.1239 40.7532 34.1253 40.7558C34.129 40.7629 34.1326 40.7701 34.1363 40.7773C34.1367 40.7783 34.1373 40.7791 34.1377 40.78C34.1419 40.7882 34.146 40.7964 34.15 40.8046C34.1501 40.805 34.1504 40.8053 34.1506 40.8057C34.1592 40.823 34.1674 40.8403 34.1753 40.8576C34.1756 40.8581 34.1758 40.8586 34.1761 40.8592C34.1793 40.8656 34.1821 40.8722 34.1851 40.8786ZM6.95364 33.5334C4.63599 33.0275 3.14726 30.8592 3.49069 28.4894C3.7912 26.4158 5.55296 24.8296 7.6423 24.7037C7.64667 24.7034 7.65091 24.7031 7.65528 24.703C7.66595 24.7023 7.67648 24.7018 7.68714 24.7014C7.69302 24.7011 7.6989 24.7008 7.70464 24.7005C7.71626 24.7 7.72774 24.6996 7.73937 24.699C7.74688 24.6988 7.7544 24.6985 7.76192 24.6982C7.77232 24.6978 7.78284 24.6975 7.79323 24.6973C7.80007 24.6971 7.80677 24.697 7.8136 24.6968C7.82304 24.6967 7.83247 24.6964 7.8419 24.6963C7.84751 24.6962 7.85312 24.6962 7.85872 24.696C7.87226 24.6959 7.88593 24.6958 7.89946 24.6958C7.90138 24.6958 7.90329 24.6958 7.90521 24.6958H7.91901C8.60685 24.6968 9.25927 24.8683 9.85796 25.2052C11.0939 25.9009 11.8616 27.2531 11.8616 28.7342V40.8796H8.02935V34.8691C8.02935 34.2266 7.58173 33.6705 6.95364 33.5334ZM56.9811 62.0306L54.6359 57.7496C54.396 57.3117 53.9364 57.0393 53.4368 57.0393H17.9781C17.4787 57.0393 17.019 57.3117 16.7791 57.7496L14.4338 62.0306H9.86958L11.5002 54.6534H59.9148L61.5454 62.0306H56.9811ZM63.3855 48.475C63.3855 50.2697 62.0056 51.7482 60.2511 51.9051C60.25 51.9053 60.2491 51.9052 60.248 51.9054C60.2353 51.9065 60.2225 51.9076 60.2097 51.9085C60.2064 51.9088 60.2031 51.9091 60.1999 51.9092C60.1892 51.91 60.1784 51.9107 60.1677 51.9114C60.1618 51.9118 60.156 51.9121 60.1501 51.9125C60.1413 51.913 60.1327 51.9136 60.124 51.914C60.1166 51.9144 60.1091 51.9147 60.1015 51.9151C60.094 51.9155 60.0865 51.9158 60.0789 51.916C60.0705 51.9163 60.0622 51.9166 60.0538 51.9169C60.047 51.9171 60.0402 51.9173 60.0332 51.9175C60.0231 51.9178 60.013 51.918 60.0027 51.9181C59.9976 51.9182 59.9927 51.9184 59.9877 51.9184C59.9722 51.9185 59.9569 51.9186 59.9415 51.9186H11.4734C11.458 51.9186 11.4427 51.9185 11.4272 51.9184C11.4222 51.9184 11.4172 51.9182 11.4122 51.9181C11.4021 51.918 11.3918 51.9177 11.3817 51.9175C11.3749 51.9174 11.368 51.9171 11.3612 51.9169C11.3527 51.9166 11.3444 51.9163 11.336 51.916C11.3285 51.9158 11.321 51.9154 11.3136 51.9151C11.3061 51.9147 11.2986 51.9144 11.291 51.914C11.2824 51.9136 11.2738 51.913 11.2652 51.9125C11.2592 51.9121 11.2532 51.9118 11.2473 51.9114C11.2368 51.9107 11.2261 51.91 11.2156 51.9092C11.2122 51.9089 11.2087 51.9087 11.2053 51.9084C11.1927 51.9074 11.1802 51.9063 11.1676 51.9052C11.1664 51.9051 11.165 51.905 11.1638 51.9048C9.6295 51.7673 8.38194 50.6194 8.09292 49.1333H51.349C52.104 49.1333 52.7161 48.521 52.7161 47.7661C52.7161 47.0111 52.104 46.3989 51.349 46.3989H8.02935V43.6138H63.3855V48.475ZM64.4611 33.5333C63.8332 33.6704 63.3855 34.2263 63.3855 34.8691V40.8796H59.5532V28.734C59.5532 27.2529 60.3208 25.9008 61.5566 25.2052C61.5873 25.1879 61.6182 25.1713 61.6491 25.1549C61.6714 25.1431 61.6935 25.1315 61.7159 25.1201C61.7195 25.1184 61.7229 25.1164 61.7265 25.1147C62.2781 24.8374 62.8722 24.6966 63.4937 24.6956H63.5089C63.5253 24.6956 63.5417 24.6958 63.5581 24.696C63.5603 24.696 63.5623 24.696 63.5645 24.6962C63.5794 24.6964 63.5943 24.6967 63.6092 24.697C63.6107 24.697 63.6122 24.697 63.6137 24.6971C65.7731 24.7509 67.6163 26.3643 67.9243 28.4896C68.2675 30.8592 66.7788 33.0275 64.4611 33.5333Z" fill="#59B130"/>
</g>
<defs>
<clipPath id="clip0">
<rect width="70" height="70" fill="white" transform="translate(0.70752 0.240479)"/>
</clipPath>
</defs>
</svg>
