<svg width="20" height="21" viewBox="0 0 20 21" fill="none" xmlns="http://www.w3.org/2000/svg">
<path d="M18.4211 13.3062C17.1873 13.3062 15.979 13.1136 14.8337 12.7356C14.2747 12.543 13.64 12.6914 13.2726 13.0662L11.0021 14.7809C8.39685 13.3904 6.72948 11.7241 5.35792 9.13776L7.02632 6.92092C7.44632 6.50092 7.59686 5.88617 7.41686 5.31039C7.0358 4.15776 6.84213 2.94828 6.84213 1.7167C6.84213 0.846162 6.13372 0.137756 5.26318 0.137756H1.57895C0.708405 0.137756 0 0.846162 0 1.7167C0 11.8735 8.26422 20.1378 18.4211 20.1378C19.2916 20.1378 20 19.4294 20 18.5588V14.8851C20 14.0146 19.2916 13.3062 18.4211 13.3062Z" fill="#59B130"/>
</svg>
